retro16-ttf.sfdir
StartChar: exclam
Encoding: 33 33 71
Width: 192
Flags: W
HStem: 0 128<64 128> 620 20G<64 128>
VStem: 64 64<0 128 192 640>
LayerCount: 2
Fore
SplineSet
64 0 m 5,0,-1
 64 128 l 1,1,-1
 128 128 l 1,2,-1
 128 0 l 1,3,-1
 64 0 l 5,0,-1
64 192 m 5,4,-1
 64 640 l 1,5,-1
 128 640 l 1,6,-1
 128 192 l 1,7,-1
 64 192 l 5,4,-1
EndSplineSet
EndChar
StartChar: numbersign
Encoding: 35 35 73
Width: 577
Flags: W
HStem: 0 21G<64 135.559 236 307.874> 127 65<64 112 202 286 374 448> 384 64<128 202 290 374 462 512> 556 20G<268.188 340 440.188 512>
LayerCount: 2
Fore
SplineSet
310 192 m 1,0,-1
 374 384 l 1,1,-1
 266 384 l 1,2,-1
 202 192 l 1,3,-1
 310 192 l 1,0,-1
64 0 m 1,4,-1
 112 127 l 1,5,-1
 64 127 l 1,6,-1
 64 192 l 1,7,-1
 138 192 l 1,8,-1
 202 384 l 1,9,-1
 128 384 l 1,10,-1
 128 448 l 1,11,-1
 226 448 l 1,12,-1
 276 576 l 1,13,-1
 340 576 l 1,14,-1
 290 448 l 1,15,-1
 398 448 l 1,16,-1
 448 576 l 1,17,-1
 512 576 l 1,18,-1
 462 448 l 1,19,-1
 512 448 l 1,20,-1
 512 384 l 1,21,-1
 438 384 l 1,22,-1
 374 192 l 1,23,-1
 448 192 l 1,24,-1
 448 127 l 1,25,-1
 350 127 l 1,26,-1
 300 0 l 1,27,-1
 236 0 l 1,28,-1
 286 127 l 1,29,-1
 176 127 l 1,30,-1
 128 0 l 1,31,-1
 64 0 l 1,4,-1
EndSplineSet
EndChar
StartChar: percent
Encoding: 37 37 88
Width: 576
Flags: W
HStem: 0 66<386.765 447.193> 129 63<386.765 447.193> 380 64<130.827 191.132> 508 64<130.827 191.132>
VStem: 64 65<445.868 506.038> 193 64<446.032 506.227> 320 65<67.5153 127.173> 449 64<67.5153 127.173>
LayerCount: 2
Fore
SplineSet
129 476 m 128,-1,1
 129 464 129 464 138.5 454 c 128,-1,2
 148 444 148 444 161 444 c 128,-1,3
 174 444 174 444 183.5 454 c 128,-1,4
 193 464 193 464 193 476 c 128,-1,5
 193 488 193 488 183.5 498 c 128,-1,6
 174 508 174 508 161 508 c 128,-1,7
 148 508 148 508 138.5 498 c 128,-1,0
 129 488 129 488 129 476 c 128,-1,1
64 475 m 0,8,9
 64 515 64 515 93 543.5 c 128,-1,10
 122 572 122 572 161 572 c 128,-1,11
 200 572 200 572 228.5 543.5 c 128,-1,12
 257 515 257 515 257 479 c 0,13,14
 257 436 257 436 228.5 408 c 128,-1,15
 200 380 200 380 161 380 c 128,-1,16
 122 380 122 380 93 408 c 128,-1,17
 64 436 64 436 64 475 c 0,8,9
385 97.5 m 132,-1,19
 385 86 385 86 394.5 76 c 132,-1,20
 404 66 404 66 417 66 c 132,-1,21
 430 66 430 66 439.5 76 c 132,-1,22
 449 86 449 86 449 97.5 c 132,-1,23
 449 109 449 109 439.5 119 c 132,-1,24
 430 129 430 129 417 129 c 132,-1,25
 404 129 404 129 394.5 119 c 132,-1,18
 385 109 385 109 385 97.5 c 132,-1,19
320 97 m 4,26,27
 320 136 320 136 349 164 c 132,-1,28
 378 192 378 192 417 192 c 132,-1,29
 456 192 456 192 484.5 164 c 132,-1,30
 513 136 513 136 513 97 c 4,31,32
 513 57 513 57 484.5 28.5 c 132,-1,33
 456 0 456 0 417 0 c 132,-1,34
 378 0 378 0 349 28.5 c 132,-1,35
 320 57 320 57 320 97 c 4,26,27
128 0 m 1,36,-1
 384 577 l 1,37,-1
 448 577 l 1,38,-1
 192 0 l 1,39,-1
 128 0 l 1,36,-1
EndSplineSet
EndChar
StartChar: parenleft
Encoding: 40 40 85
Width: 320
VWidth: 0
Flags: W
HStem: -65 65<198.803 256> 575 65<198.803 256>
VStem: 64 64<98.2109 476.789>
LayerCount: 2
Fore
SplineSet
256 -65 m 5,0,1
 200 -65 200 -65 159.5 -33.5 c 128,-1,2
 119 -2 119 -2 99.5 47.5 c 128,-1,3
 80 97 80 97 72 143 c 128,-1,4
 64 189 64 189 64 233 c 2,5,-1
 64 342 l 2,6,7
 64 386 64 386 72 432 c 128,-1,8
 80 478 80 478 99.5 527.5 c 128,-1,9
 119 577 119 577 159.5 608.5 c 128,-1,10
 200 640 200 640 256 640 c 1,11,-1
 256 575 l 1,12,13
 211 575 211 575 180.5 533 c 128,-1,14
 150 491 150 491 139 439.5 c 128,-1,15
 128 388 128 388 128 335 c 2,16,-1
 128 240 l 2,17,18
 128 187 128 187 139 135.5 c 128,-1,19
 150 84 150 84 180.5 42 c 128,-1,20
 211 0 211 0 256 0 c 1,21,-1
 256 -65 l 5,0,1
EndSplineSet
EndChar
StartChar: parenright
Encoding: 41 41 86
Width: 320
VWidth: 0
Flags: W
HStem: -65 65<64 121.197> 575 65<64 121.197>
VStem: 192 64<98.2109 476.789>
LayerCount: 2
Fore
SplineSet
64 -65 m 1,0,-1
 64 0 l 1,1,2
 109 0 109 0 139.5 42 c 128,-1,3
 170 84 170 84 181 135.5 c 128,-1,4
 192 187 192 187 192 240 c 2,5,-1
 192 335 l 2,6,7
 192 388 192 388 181 439.5 c 128,-1,8
 170 491 170 491 139.5 533 c 128,-1,9
 109 575 109 575 64 575 c 1,10,-1
 64 640 l 1,11,12
 120 640 120 640 160.5 608.5 c 128,-1,13
 201 577 201 577 220.5 527.5 c 128,-1,14
 240 478 240 478 248 432 c 128,-1,15
 256 386 256 386 256 342 c 2,16,-1
 256 233 l 2,17,18
 256 189 256 189 248 143 c 128,-1,19
 240 97 240 97 220.5 47.5 c 128,-1,20
 201 -2 201 -2 160.5 -33.5 c 128,-1,21
 120 -65 120 -65 64 -65 c 1,0,-1
EndSplineSet
EndChar
StartChar: plus
Encoding: 43 43 76
Width: 448
Flags: W
HStem: 252 64<64 192 256 384>
VStem: 192 64<124 252 316 444>
LayerCount: 2
Fore
SplineSet
192 124 m 5,0,-1
 192 252 l 5,1,-1
 64 252 l 5,2,-1
 64 316 l 5,3,-1
 192 316 l 5,4,-1
 192 444 l 5,5,-1
 256 444 l 5,6,-1
 256 316 l 5,7,-1
 384 316 l 5,8,-1
 384 252 l 5,9,-1
 256 252 l 5,10,-1
 256 124 l 5,11,-1
 192 124 l 5,0,-1
EndSplineSet
EndChar
StartChar: comma
Encoding: 44 44 74
Width: 256
Flags: W
HStem: 0 128<64 128>
VStem: 64 128<0 128>
LayerCount: 2
Fore
SplineSet
64 -128 m 1,0,-1
 128 0 l 1,1,-1
 64 0 l 1,2,-1
 64 128 l 1,3,-1
 192 128 l 1,4,-1
 192 0 l 1,5,-1
 128 -128 l 1,6,-1
 64 -128 l 1,0,-1
EndSplineSet
EndChar
StartChar: one
Encoding: 49 49 58
Width: 512
Flags: W
HStem: 0 64<128 256 320 448> 556 20G<242.667 320>
VStem: 256 64<64 468>
LayerCount: 2
Fore
SplineSet
128 0 m 1,0,-1
 128 64 l 1,1,-1
 256 64 l 1,2,-1
 256 468 l 1,3,-1
 202 384 l 5,4,-1
 128 384 l 1,5,-1
 256 576 l 1,6,-1
 320 576 l 1,7,-1
 320 64 l 1,8,-1
 448 64 l 1,9,-1
 448 0 l 1,10,-1
 128 0 l 1,0,-1
EndSplineSet
EndChar
StartChar: two
Encoding: 50 50 60
Width: 512
VWidth: 0
Flags: W
HStem: 0 64<128 448> 319 65<155.312 367.064> 512 64<64 367.41>
VStem: 64 64<64 292.204> 384 64<400.888 494.852>
LayerCount: 2
Fore
SplineSet
64 0 m 1,0,-1
 64 177 l 2,1,2
 64 203 64 203 64.5 217 c 128,-1,3
 65 231 65 231 68 256.5 c 128,-1,4
 71 282 71 282 76.5 296.5 c 128,-1,5
 82 311 82 311 94 330 c 128,-1,6
 106 349 106 349 122.5 359 c 128,-1,7
 139 369 139 369 165.5 376.5 c 128,-1,8
 192 384 192 384 225 384 c 2,9,-1
 292 384 l 2,10,11
 384 384 384 384 384 448 c 128,-1,12
 384 512 384 512 292 512 c 2,13,-1
 64 512 l 1,14,-1
 64 576 l 1,15,-1
 292 576 l 2,16,17
 448 576 448 576 448 448 c 0,18,19
 448 386 448 386 411.5 352.5 c 128,-1,20
 375 319 375 319 292 319 c 2,21,-1
 228 319 l 2,22,23
 199 319 199 319 179.5 310.5 c 128,-1,24
 160 302 160 302 149.5 291.5 c 128,-1,25
 139 281 139 281 134 258 c 128,-1,26
 129 235 129 235 128.5 219 c 128,-1,27
 128 203 128 203 128 171 c 2,28,-1
 128 64 l 1,29,-1
 448 64 l 1,30,-1
 448 0 l 1,31,-1
 64 0 l 1,0,-1
EndSplineSet
EndChar
StartChar: six
Encoding: 54 54 64
Width: 512
VWidth: 0
Flags: W
HStem: -5 64<154.917 357.078> 320 64<128 358.067> 512 64<145.106 384>
VStem: 64 64<86.42 320 384 494.984> 384 64<86.6599 293.825>
LayerCount: 2
Fore
SplineSet
287 320 m 6,0,-1
 128 320 l 1,1,-1
 128 192 l 2,2,3
 128 159 128 159 131 139 c 128,-1,4
 134 119 134 119 143 98.5 c 128,-1,5
 152 78 152 78 172 68.5 c 128,-1,6
 192 59 192 59 224 59 c 2,7,-1
 287 59 l 2,8,9
 347 59 347 59 365.5 92.5 c 128,-1,10
 384 126 384 126 384 192 c 0,11,12
 384 257 384 257 365.5 288.5 c 128,-1,13
 347 320 347 320 287 320 c 6,0,-1
128 384 m 5,14,-1
 287 384 l 2,15,16
 330 384 330 384 361 372 c 128,-1,17
 392 360 392 360 408.5 342.5 c 128,-1,18
 425 325 425 325 434.5 297 c 128,-1,19
 444 269 444 269 446 246.5 c 128,-1,20
 448 224 448 224 448 192 c 128,-1,21
 448 160 448 160 446 137 c 128,-1,22
 444 114 444 114 434.5 85 c 128,-1,23
 425 56 425 56 408.5 38 c 128,-1,24
 392 20 392 20 361 7.5 c 128,-1,25
 330 -5 330 -5 287 -5 c 2,26,-1
 224 -5 l 2,27,28
 181 -5 181 -5 150 8 c 128,-1,29
 119 21 119 21 103 38.5 c 128,-1,30
 87 56 87 56 78 85.5 c 128,-1,31
 69 115 69 115 66.5 137 c 128,-1,32
 64 159 64 159 64 192 c 2,33,-1
 64 449 l 2,34,35
 64 576 64 576 221 576 c 2,36,-1
 384 576 l 1,37,-1
 384 512 l 1,38,-1
 221 512 l 2,39,40
 128 512 128 512 128 448 c 2,41,-1
 128 384 l 5,14,-1
EndSplineSet
EndChar
StartChar: nine
Encoding: 57 57 66
Width: 512
VWidth: 0
Flags: W
HStem: 0 64<128 357.052> 256 64<155.417 384> 517 64<156.354 355.646>
VStem: 64 64<347.799 488.002> 384 64<91.7598 256 320 488.002>
LayerCount: 2
Fore
SplineSet
288 0 m 2,0,-1
 128 0 l 1,1,-1
 128 64 l 1,2,-1
 288 64 l 2,3,4
 343 64 343 64 363.5 94 c 128,-1,5
 384 124 384 124 384 159 c 2,6,-1
 384 256 l 1,7,-1
 224 256 l 2,8,9
 183 256 183 256 152.5 268 c 128,-1,10
 122 280 122 280 105.5 297.5 c 128,-1,11
 89 315 89 315 79.5 338.5 c 128,-1,12
 70 362 70 362 67 379.5 c 128,-1,13
 64 397 64 397 64 416 c 128,-1,14
 64 435 64 435 67 453 c 128,-1,15
 70 471 70 471 79.5 495.5 c 128,-1,16
 89 520 89 520 105.5 538 c 128,-1,17
 122 556 122 556 152.5 568.5 c 128,-1,18
 183 581 183 581 224 581 c 2,19,-1
 288 581 l 2,20,21
 329 581 329 581 359.5 568.5 c 128,-1,22
 390 556 390 556 406.5 538 c 128,-1,23
 423 520 423 520 432.5 495.5 c 128,-1,24
 442 471 442 471 445 453 c 128,-1,25
 448 435 448 435 448 416 c 2,26,-1
 448 160 l 2,27,28
 448 135 448 135 442.5 112.5 c 128,-1,29
 437 90 437 90 422 62 c 128,-1,30
 407 34 407 34 373 17 c 128,-1,31
 339 0 339 0 288 0 c 2,0,-1
384 417 m 2,32,33
 384 432 384 432 380.5 446.5 c 128,-1,34
 377 461 377 461 368 478.5 c 128,-1,35
 359 496 359 496 338.5 506.5 c 128,-1,36
 318 517 318 517 288 517 c 2,37,-1
 224 517 l 2,38,39
 194 517 194 517 173.5 506.5 c 128,-1,40
 153 496 153 496 144 478.5 c 128,-1,41
 135 461 135 461 131.5 446.5 c 128,-1,42
 128 432 128 432 128 417 c 128,-1,43
 128 402 128 402 131.5 388 c 128,-1,44
 135 374 135 374 144 357 c 128,-1,45
 153 340 153 340 173.5 330 c 128,-1,46
 194 320 194 320 224 320 c 2,47,-1
 384 320 l 1,48,-1
 384 417 l 2,32,33
EndSplineSet
EndChar
StartChar: semicolon
Encoding: 59 59 67
Width: 256
Flags: W
HStem: 63 129<64 128> 383 129<64 192>
VStem: 64 128<64 192 383 512>
LayerCount: 2
Fore
SplineSet
64 -65 m 1,0,-1
 128 63 l 1,1,-1
 64 63 l 1,2,-1
 64 192 l 1,3,-1
 192 192 l 1,4,-1
 192 64 l 1,5,-1
 128 -65 l 1,6,-1
 64 -65 l 1,0,-1
64 383 m 1,7,-1
 64 512 l 1,8,-1
 192 512 l 1,9,-1
 192 383 l 1,10,-1
 64 383 l 1,7,-1
EndSplineSet
EndChar
StartChar: less
Encoding: 60 60 68
Width: 384
Flags: W
VStem: 44 286
LayerCount: 2
Fore
SplineSet
246 64 m 5,0,-1
 44 288 l 1,1,-1
 246 512 l 1,2,-1
 330 512 l 1,3,-1
 128 288 l 1,4,-1
 330 64 l 1,5,-1
 246 64 l 5,0,-1
EndSplineSet
EndChar
StartChar: equal
Encoding: 61 61 70
Width: 448
Flags: W
HStem: 128 64<64 384> 384 64<64 384>
VStem: 64 320<128 192 384 448>
LayerCount: 2
Fore
SplineSet
64 128 m 1,0,-1
 64 192 l 1,1,-1
 384 192 l 1,2,-1
 384 128 l 1,3,-1
 64 128 l 1,0,-1
64 384 m 1,4,-1
 64 448 l 1,5,-1
 384 448 l 1,6,-1
 384 384 l 1,7,-1
 64 384 l 1,4,-1
EndSplineSet
EndChar
StartChar: L
Encoding: 76 76 41
Width: 480
Flags: W
HStem: 0 64<128 448> 556 20G<64 128>
VStem: 64 64<64 576>
LayerCount: 2
Fore
SplineSet
64 0 m 1,0,-1
 64 576 l 1,1,-1
 128 576 l 1,2,-1
 128 64 l 1,3,-1
 448 64 l 1,4,-1
 448 0 l 1,5,-1
 64 0 l 1,0,-1
EndSplineSet
EndChar
StartChar: V
Encoding: 86 86 49
Width: 492
VWidth: 0
Flags: W
HStem: 0 21G<218.271 293.799> 556 20G<59 132.714 379.196 455>
LayerCount: 2
Fore
SplineSet
288 0 m 29,0,-1
 224 0 l 1,1,-1
 59 576 l 1,2,-1
 127 576 l 1,3,-1
 255 128 l 1,4,-1
 385 576 l 1,5,-1
 455 576 l 1,6,-1
 288 0 l 29,0,-1
EndSplineSet
EndChar
StartChar: X
Encoding: 88 88 56
Width: 517
VWidth: 0
Flags: W
HStem: 0 21G<54 138.847 373.153 458> 556 20G<44 129.22 382.78 468>
LayerCount: 2
Fore
SplineSet
216 288 m 1,0,-1
 44 576 l 1,1,-1
 118 576 l 1,2,-1
 256 330 l 1,3,-1
 394 576 l 1,4,-1
 468 576 l 1,5,-1
 296 288 l 1,6,-1
 458 0 l 1,7,-1
 384 0 l 1,8,-1
 256 236 l 1,9,-1
 128 0 l 1,10,-1
 54 0 l 1,11,-1
 216 288 l 1,0,-1
EndSplineSet
EndChar
StartChar: Z
Encoding: 90 90 57
Width: 512
VWidth: 0
Flags: W
HStem: 0 64<128 448> 512 64<64 384>
VStem: 64 64<64 154> 384 64<486 512>
LayerCount: 2
Fore
SplineSet
64 0 m 1,0,-1
 64 176 l 1,1,-1
 384 486 l 1,2,-1
 384 512 l 1,3,-1
 64 512 l 1,4,-1
 64 576 l 1,5,-1
 448 576 l 1,6,-1
 448 464 l 1,7,-1
 128 154 l 1,8,-1
 128 64 l 1,9,-1
 448 64 l 1,10,-1
 448 0 l 1,11,-1
 64 0 l 1,0,-1
EndSplineSet
EndChar
StartChar: backslash
Encoding: 92 92 80
Width: 512
Flags: W
HStem: 620 20G<0 73.987>
LayerCount: 2
Fore
SplineSet
448 -129 m 1,0,-1
 384 -129 l 1,1,-1
 0 640 l 1,2,-1
 64 640 l 1,3,-1
 448 -129 l 1,0,-1
EndSplineSet
EndChar
StartChar: b
Encoding: 98 98 11
Width: 438
VWidth: 0
Flags: W
HStem: 0 64<128 292.781> 384 64<128 292.781> 620 20G<64 128>
VStem: 64 64<64 384 448 640> 320 64<90.1953 357.805>
LayerCount: 2
Fore
SplineSet
223 384 m 2,0,-1
 128 384 l 1,1,-1
 128 64 l 1,2,-1
 223 64 l 2,3,4
 251 64 251 64 270 72.5 c 128,-1,5
 289 81 289 81 299 91.5 c 128,-1,6
 309 102 309 102 313.5 125 c 128,-1,7
 318 148 318 148 319 164.5 c 128,-1,8
 320 181 320 181 320 213 c 2,9,-1
 320 235 l 2,10,11
 320 267 320 267 319 283.5 c 128,-1,12
 318 300 318 300 313.5 323 c 128,-1,13
 309 346 309 346 299 356.5 c 128,-1,14
 289 367 289 367 270 375.5 c 128,-1,15
 251 384 251 384 223 384 c 2,0,-1
223 0 m 2,16,-1
 64 0 l 1,17,-1
 64 640 l 1,18,-1
 128 640 l 1,19,-1
 128 448 l 1,20,-1
 223 448 l 2,21,22
 269 448 269 448 301 434 c 128,-1,23
 333 420 333 420 348.5 402 c 128,-1,24
 364 384 364 384 372.5 352 c 128,-1,25
 381 320 381 320 382.5 298.5 c 128,-1,26
 384 277 384 277 384 241 c 2,27,-1
 384 207 l 2,28,29
 384 171 384 171 382.5 149.5 c 128,-1,30
 381 128 381 128 372.5 96 c 128,-1,31
 364 64 364 64 348.5 46 c 128,-1,32
 333 28 333 28 301 14 c 128,-1,33
 269 0 269 0 223 0 c 2,16,-1
EndSplineSet
EndChar
StartChar: d
Encoding: 100 100 12
Width: 448
VWidth: 0
Flags: W
HStem: 0 64<154.08 320> 384 64<154.08 320> 620 20G<320 384>
VStem: 64.5 64<88.9141 359.086> 320 64<64 384 448 640>
LayerCount: 2
Fore
SplineSet
224 384 m 2,0,1
 196 384 196 384 177 375.5 c 128,-1,2
 158 367 158 367 148.5 356.5 c 128,-1,3
 139 346 139 346 134 323 c 128,-1,4
 129 300 129 300 128.5 284 c 128,-1,5
 128 268 128 268 128 235 c 2,6,-1
 128 213 l 2,7,8
 128 180 128 180 128.5 164 c 128,-1,9
 129 148 129 148 134 125 c 128,-1,10
 139 102 139 102 148.5 91.5 c 128,-1,11
 158 81 158 81 177 72.5 c 128,-1,12
 196 64 196 64 224 64 c 2,13,-1
 320 64 l 1,14,-1
 320 384 l 1,15,-1
 224 384 l 2,0,1
224 0 m 2,16,17
 191 0 191 0 165 7 c 128,-1,18
 139 14 139 14 122.5 24.5 c 128,-1,19
 106 35 106 35 94.5 53.5 c 128,-1,20
 83 72 83 72 77 87 c 128,-1,21
 71 102 71 102 68 127 c 128,-1,22
 65 152 65 152 64.5 166.5 c 128,-1,23
 64 181 64 181 64 207 c 2,24,-1
 64 241 l 2,25,26
 64 267 64 267 64.5 281.5 c 128,-1,27
 65 296 65 296 68 321 c 128,-1,28
 71 346 71 346 77 361 c 128,-1,29
 83 376 83 376 94.5 394.5 c 128,-1,30
 106 413 106 413 122.5 423.5 c 128,-1,31
 139 434 139 434 165 441 c 128,-1,32
 191 448 191 448 224 448 c 2,33,-1
 320 448 l 1,34,-1
 320 640 l 1,35,-1
 384 640 l 1,36,-1
 384 0 l 1,37,-1
 224 0 l 2,16,17
EndSplineSet
EndChar
StartChar: j
Encoding: 106 106 21
Width: 320
VWidth: 0
Flags: W
HStem: -192 64<0 167.35> 428 20G<192 256> 576 64<192 256>
VStem: 192 64<-103.086 448 576 640>
LayerCount: 2
Fore
SplineSet
192 640 m 29,0,-1
 256 640 l 1,1,-1
 256 576 l 1,2,-1
 192 576 l 1,3,-1
 192 640 l 29,0,-1
192 0 m 6,4,-1
 192 448 l 1,5,-1
 256 448 l 1,6,-1
 256 15 l 2,7,8
 256 -11 256 -11 255.5 -25.5 c 128,-1,9
 255 -40 255 -40 252 -65 c 128,-1,10
 249 -90 249 -90 243 -105 c 128,-1,11
 237 -120 237 -120 225.5 -138.5 c 128,-1,12
 214 -157 214 -157 197.5 -167.5 c 128,-1,13
 181 -178 181 -178 155 -185 c 128,-1,14
 129 -192 129 -192 96 -192 c 2,15,-1
 0 -192 l 1,16,-1
 0 -128 l 1,17,-1
 96 -128 l 2,18,19
 156 -128 156 -128 174 -97 c 128,-1,20
 192 -66 192 -66 192 0 c 6,4,-1
EndSplineSet
EndChar
StartChar: k
Encoding: 107 107 22
Width: 448
VWidth: 0
Flags: W
HStem: 0 21G<64 128 320 384> 191 65<128 254.88> 428 20G<320 384> 620 20G<64 128>
VStem: 64 64<0 191 256 640> 320 64<0 133.875 313.856 448>
LayerCount: 2
Fore
SplineSet
256 224 m 5,0,1
 295 224 295 224 339.5 177.5 c 128,-1,2
 384 131 384 131 384 64 c 2,3,-1
 384 0 l 1,4,-1
 320 0 l 1,5,-1
 320 64 l 2,6,7
 320 118 320 118 279.5 154.5 c 128,-1,8
 239 191 239 191 192 191 c 2,9,-1
 128 191 l 1,10,-1
 128 0 l 1,11,-1
 64 0 l 1,12,-1
 64 640 l 1,13,-1
 128 640 l 1,14,-1
 128 256 l 1,15,-1
 192 256 l 2,16,17
 239 256 239 256 279.5 293 c 128,-1,18
 320 330 320 330 320 384 c 2,19,-1
 320 448 l 1,20,-1
 384 448 l 1,21,-1
 384 384 l 2,22,23
 384 317 384 317 339.5 270.5 c 128,-1,24
 295 224 295 224 256 224 c 5,0,1
EndSplineSet
EndChar
StartChar: r
Encoding: 114 114 23
Width: 392
Flags: W
HStem: 0 21G<64 128> 384 64<183.017 352>
VStem: 64 64<0 335.227 389 448>
LayerCount: 2
Fore
SplineSet
64 0 m 1,0,-1
 64 448 l 1,1,-1
 128 448 l 1,2,-1
 128 389 l 2,3,4
 128 393 128 393 132.5 400 c 128,-1,5
 137 407 137 407 148.5 415.5 c 128,-1,6
 160 424 160 424 177 431 c 128,-1,7
 194 438 194 438 222.5 443 c 128,-1,8
 251 448 251 448 285 448 c 2,9,-1
 352 448 l 1,10,-1
 352 384 l 1,11,-1
 284 384 l 2,12,13
 213 384 213 384 170.5 354 c 128,-1,14
 128 324 128 324 128 270 c 2,15,-1
 128 0 l 1,16,-1
 64 0 l 1,0,-1
EndSplineSet
EndChar
StartChar: s
Encoding: 115 115 17
Width: 448
VWidth: 0
Flags: W
HStem: -4 65<144.599 291.654> 256.5 63.5<130.836 292.129> 384 64<130.836 352>
VStem: 64 64<74.4131 128 328.865 375.135> 320 64<90.1113 228.971>
LayerCount: 2
Fore
SplineSet
224 384 m 2,0,1
 128 384 128 384 128 352 c 128,-1,2
 128 320 128 320 224 320 c 0,3,4
 275 320 275 320 309 303 c 128,-1,5
 343 286 343 286 358 258 c 128,-1,6
 373 230 373 230 378.5 207.5 c 128,-1,7
 384 185 384 185 384 160 c 0,8,9
 384 141 384 141 381 123.5 c 128,-1,10
 378 106 378 106 368.5 81 c 128,-1,11
 359 56 359 56 342.5 38.5 c 128,-1,12
 326 21 326 21 295.5 8.5 c 128,-1,13
 265 -4 265 -4 224 -4 c 0,14,15
 186 -4 186 -4 160.5 0.5 c 128,-1,16
 135 5 135 5 111.5 18 c 128,-1,17
 88 31 88 31 76.5 58.5 c 128,-1,18
 65 86 65 86 64 128 c 1,19,-1
 128 128 l 1,20,21
 130 87 130 87 148.5 74 c 128,-1,22
 167 61 167 61 224 61 c 0,23,24
 254 61 254 61 274.5 71.5 c 128,-1,25
 295 82 295 82 304 99.5 c 128,-1,26
 313 117 313 117 316.5 131.5 c 128,-1,27
 320 146 320 146 320 161 c 128,-1,28
 320 176 320 176 316.5 190 c 128,-1,29
 313 204 313 204 304 220 c 128,-1,30
 295 236 295 236 274.5 246 c 128,-1,31
 254 256 254 256 224 256 c 0,32,33
 193 256 193 256 177 256.5 c 128,-1,34
 161 257 161 257 135.5 262 c 128,-1,35
 110 267 110 267 97.5 276.5 c 128,-1,36
 85 286 85 286 74.5 305 c 128,-1,37
 64 324 64 324 64 352 c 128,-1,38
 64 380 64 380 74.5 399 c 128,-1,39
 85 418 85 418 97.5 427.5 c 128,-1,40
 110 437 110 437 135.5 442 c 128,-1,41
 161 447 161 447 177 447.5 c 128,-1,42
 193 448 193 448 224 448 c 2,43,-1
 352 448 l 1,44,-1
 352 384 l 1,45,-1
 224 384 l 2,0,1
EndSplineSet
EndChar
StartChar: z
Encoding: 122 122 26
Width: 448
Flags: W
HStem: 0 64<128 384> 384 64<64 320>
VStem: 64 64<64 90> 320 64<358 384>
LayerCount: 2
Fore
SplineSet
64 0 m 1,0,-1
 64 112 l 1,1,-1
 320 358 l 1,2,-1
 320 384 l 1,3,-1
 64 384 l 1,4,-1
 64 448 l 1,5,-1
 384 448 l 1,6,-1
 384 336 l 1,7,-1
 128 90 l 1,8,-1
 128 64 l 1,9,-1
 384 64 l 1,10,-1
 384 0 l 1,11,-1
 64 0 l 1,0,-1
EndSplineSet
EndChar
StartChar: exclamdown
Encoding: 161 161 119
Width: 192
Flags: W
HStem: 320 128<64 128>
VStem: 64 64<-192 256 320 448>
LayerCount: 2
Fore
SplineSet
128 448 m 5,0,-1
 128 320 l 1,1,-1
 64 320 l 1,2,-1
 64 448 l 1,3,-1
 128 448 l 5,0,-1
128 256 m 5,4,-1
 128 -192 l 1,5,-1
 64 -192 l 1,6,-1
 64 256 l 1,7,-1
 128 256 l 5,4,-1
EndSplineSet
EndChar
StartChar: dieresis
Encoding: 168 168 110
Width: 480
Flags: W
HStem: 575 65<128 192 256 320>
VStem: 128 64<575 640> 256 64<575 640>
LayerCount: 2
Fore
SplineSet
128 575 m 1,0,-1
 128 640 l 1,1,-1
 192 640 l 1,2,-1
 192 575 l 1,3,-1
 128 575 l 1,0,-1
256 575 m 1,4,-1
 256 640 l 1,5,-1
 320 640 l 1,6,-1
 320 575 l 1,7,-1
 256 575 l 1,4,-1
EndSplineSet
EndChar
StartChar: macron
Encoding: 175 175 153
Width: 448
VWidth: 0
Flags: W
HStem: 576 64<64 384>
VStem: 64 320<576 640>
LayerCount: 2
Fore
SplineSet
64 640 m 25,0,-1
 384 640 l 1,1,-1
 384 575 l 1,2,-1
 64 576 l 1,3,-1
 64 640 l 25,0,-1
EndSplineSet
EndChar
StartChar: questiondown
Encoding: 191 191 120
Width: 448
Flags: W
HStem: -192 64<91.8713 384> 64 64<91.4169 192> 320 128<192 256>
VStem: 0 64<-100.971 36.2007> 192 64<128 256 320 448>
LayerCount: 2
Fore
SplineSet
256 448 m 5,0,-1
 256 320 l 1,1,-1
 192 320 l 1,2,-1
 192 448 l 1,3,-1
 256 448 l 5,0,-1
192 256 m 5,4,-1
 256 256 l 1,5,-1
 256 64 l 1,6,-1
 160 64 l 2,7,8
 130 64 130 64 109.5 54 c 128,-1,9
 89 44 89 44 80 27 c 128,-1,10
 71 10 71 10 67.5 -4 c 128,-1,11
 64 -18 64 -18 64 -33 c 128,-1,12
 64 -48 64 -48 67.5 -62 c 128,-1,13
 71 -76 71 -76 80 -92 c 128,-1,14
 89 -108 89 -108 109.5 -118 c 128,-1,15
 130 -128 130 -128 160 -128 c 2,16,-1
 384 -128 l 1,17,-1
 384 -192 l 1,18,-1
 160 -192 l 2,19,20
 109 -192 109 -192 75 -175 c 128,-1,21
 41 -158 41 -158 26 -130 c 128,-1,22
 11 -102 11 -102 5.5 -79.5 c 128,-1,23
 0 -57 0 -57 0 -32 c 0,24,25
 0 -13 0 -13 3 4.5 c 128,-1,26
 6 22 6 22 15.5 45.5 c 128,-1,27
 25 69 25 69 41.5 86.5 c 128,-1,28
 58 104 58 104 88.5 116 c 128,-1,29
 119 128 119 128 160 128 c 2,30,-1
 192 128 l 1,31,-1
 192 256 l 5,4,-1
EndSplineSet
EndChar
StartChar: Agrave
Encoding: 192 192 121
Width: 512
VWidth: 0
Flags: W
HStem: 0 21G<64 128 384 448> 191 65<128 384> 512 64<155.312 356.688> 640 21G<285 325>
VStem: 64 64<0 191 256 485.197> 384 64<0 191 256 485.197>
LayerCount: 2
Fore
SplineSet
225 576 m 2,0,-1
 287 576 l 2,1,2
 320 576 320 576 346.5 568.5 c 128,-1,3
 373 561 373 561 389.5 551 c 128,-1,4
 406 541 406 541 418 522 c 128,-1,5
 430 503 430 503 435.5 488.5 c 128,-1,6
 441 474 441 474 444 448.5 c 128,-1,7
 447 423 447 423 447.5 409 c 128,-1,8
 448 395 448 395 448 369 c 2,9,-1
 448 0 l 1,10,-1
 384 0 l 1,11,-1
 384 191 l 1,12,-1
 128 191 l 1,13,-1
 128 0 l 1,14,-1
 64 0 l 1,15,-1
 64 369 l 2,16,17
 64 395 64 395 64.5 409 c 128,-1,18
 65 423 65 423 68 448.5 c 128,-1,19
 71 474 71 474 76.5 488.5 c 128,-1,20
 82 503 82 503 94 522 c 128,-1,21
 106 541 106 541 122.5 551 c 128,-1,22
 139 561 139 561 165.5 568.5 c 128,-1,23
 192 576 192 576 225 576 c 2,0,-1
284 512 m 2,24,-1
 228 512 l 2,25,26
 199 512 199 512 179.5 503.5 c 128,-1,27
 160 495 160 495 149.5 484.5 c 128,-1,28
 139 474 139 474 134 451 c 128,-1,29
 129 428 129 428 128.5 412 c 128,-1,30
 128 396 128 396 128 363 c 2,31,-1
 128 256 l 1,32,-1
 384 256 l 1,33,-1
 384 363 l 2,34,35
 384 396 384 396 383.5 412 c 128,-1,36
 383 428 383 428 378 451 c 128,-1,37
 373 474 373 474 362.5 484.5 c 128,-1,38
 352 495 352 495 332.5 503.5 c 128,-1,39
 313 512 313 512 284 512 c 2,24,-1
305 640 m 1,40,-1
 161 784 l 1,41,-1
 209 832 l 1,42,-1
 353 688 l 1,43,-1
 305 640 l 1,40,-1
EndSplineSet
EndChar
StartChar: Ccedilla
Encoding: 199 199 169
Width: 486
VWidth: 0
Flags: W
HStem: -178 64<114 297.991> 0 64<154.08 224 290 415> 0 4<214.857 290> 512 64<154.08 415>
VStem: 64 64<89.5488 486.451> 298 86<-132.5 -62.8575>
LayerCount: 2
Fore
SplineSet
224 0 m 2,0,1
 191 0 191 0 165 7 c 128,-1,2
 139 14 139 14 122.5 24.5 c 128,-1,3
 106 35 106 35 94.5 53.5 c 128,-1,4
 83 72 83 72 77 87 c 128,-1,5
 71 102 71 102 68 127 c 128,-1,6
 65 152 65 152 64.5 166.5 c 128,-1,7
 64 181 64 181 64 207 c 2,8,-1
 64 369 l 2,9,10
 64 395 64 395 64.5 409.5 c 128,-1,11
 65 424 65 424 68 449 c 128,-1,12
 71 474 71 474 77 489 c 128,-1,13
 83 504 83 504 94.5 522.5 c 128,-1,14
 106 541 106 541 122.5 551.5 c 128,-1,15
 139 562 139 562 165 569 c 128,-1,16
 191 576 191 576 224 576 c 2,17,-1
 415 576 l 1,18,-1
 415 512 l 1,19,-1
 224 512 l 2,20,21
 196 512 196 512 177 503.5 c 128,-1,22
 158 495 158 495 148.5 484.5 c 128,-1,23
 139 474 139 474 134 451 c 128,-1,24
 129 428 129 428 128.5 412 c 128,-1,25
 128 396 128 396 128 363 c 2,26,-1
 128 213 l 2,27,28
 128 180 128 180 128.5 164 c 128,-1,29
 129 148 129 148 134 125 c 128,-1,30
 139 102 139 102 148.5 91.5 c 128,-1,31
 158 81 158 81 177 72.5 c 128,-1,32
 196 64 196 64 224 64 c 2,33,-1
 415 64 l 1,34,-1
 415 0 l 1,35,-1
 224 0 l 2,0,1
290 4 m 1,36,37
 384 -65 384 -65 384 -119 c 0,38,39
 384 -146 384 -146 363.5 -162 c 128,-1,40
 343 -178 343 -178 305 -178 c 2,41,-1
 114 -178 l 1,42,-1
 114 -114 l 1,43,-1
 262 -114 l 2,44,45
 298 -114 298 -114 298 -92 c 0,46,47
 298 -85 298 -85 294 -76 c 128,-1,48
 290 -67 290 -67 286 -61 c 2,49,-1
 282 -56 l 1,50,-1
 214 4 l 1,51,-1
 290 4 l 1,36,37
EndSplineSet
EndChar
StartChar: Iacute
Encoding: 205 205 131
Width: 448
VWidth: 0
Flags: W
HStem: 0 64<64 192 256 384> 512 64<64 192 256 384> 640 21G<157 197>
VStem: 192 64<64 512>
LayerCount: 2
Fore
SplineSet
64 0 m 1,0,-1
 64 64 l 1,1,-1
 192 64 l 1,2,-1
 192 512 l 1,3,-1
 64 512 l 1,4,-1
 64 576 l 1,5,-1
 384 576 l 1,6,-1
 384 512 l 1,7,-1
 256 512 l 1,8,-1
 256 64 l 1,9,-1
 384 64 l 1,10,-1
 384 0 l 1,11,-1
 64 0 l 1,0,-1
177 640 m 1,12,-1
 129 688 l 1,13,-1
 273 832 l 1,14,-1
 321 784 l 1,15,-1
 177 640 l 1,12,-1
EndSplineSet
EndChar
StartChar: Idieresis
Encoding: 207 207 133
Width: 448
VWidth: 0
Flags: W
HStem: 0 64<64 192 256 384> 512 64<64 192 256 384> 640 64<129 193 257 321>
VStem: 129 64<640 704> 192 64<64 512> 257 64<640 704>
LayerCount: 2
Fore
SplineSet
64 0 m 1,0,-1
 64 64 l 1,1,-1
 192 64 l 1,2,-1
 192 512 l 1,3,-1
 64 512 l 1,4,-1
 64 576 l 1,5,-1
 384 576 l 1,6,-1
 384 512 l 1,7,-1
 256 512 l 1,8,-1
 256 64 l 1,9,-1
 384 64 l 1,10,-1
 384 0 l 1,11,-1
 64 0 l 1,0,-1
129 640 m 1,12,-1
 129 704 l 1,13,-1
 193 704 l 1,14,-1
 193 640 l 1,15,-1
 129 640 l 1,12,-1
257 640 m 1,16,-1
 257 704 l 1,17,-1
 321 704 l 1,18,-1
 321 640 l 1,19,-1
 257 640 l 1,16,-1
EndSplineSet
EndChar
StartChar: Ntilde
Encoding: 209 209 134
Width: 512
VWidth: 0
Flags: W
HStem: 0 21G<64 128 372.468 448> 556 20G<64 139.532 384 448> 643 64<277.319 372.837> 707 64<139.163 237.887>
VStem: 64 64<0 444 643 695.609> 384 64<132 576 718.391 771>
LayerCount: 2
Fore
SplineSet
64 0 m 1,0,-1
 64 576 l 1,1,-1
 128 576 l 1,2,-1
 384 132 l 1,3,-1
 384 576 l 1,4,-1
 448 576 l 1,5,-1
 448 0 l 1,6,-1
 384 0 l 1,7,-1
 128 444 l 1,8,-1
 128 0 l 1,9,-1
 64 0 l 1,0,-1
448 771 m 1,10,11
 448 718 448 718 412.5 680.5 c 128,-1,12
 377 643 377 643 320 643 c 0,13,14
 297 643 297 643 252.5 675 c 128,-1,15
 208 707 208 707 192 707 c 0,16,17
 128 707 128 707 128 643 c 1,18,-1
 64 643 l 1,19,20
 64 696 64 696 99.5 733.5 c 128,-1,21
 135 771 135 771 192 771 c 0,22,23
 222 771 222 771 264 739 c 128,-1,24
 306 707 306 707 320 707 c 0,25,26
 384 707 384 707 384 771 c 1,27,-1
 448 771 l 1,10,11
EndSplineSet
EndChar
StartChar: multiply
Encoding: 215 215 313
Width: 448
VWidth: 0
Flags: W
HStem: 147 282
VStem: 84 280
LayerCount: 2
Fore
SplineSet
84 191 m 25,0,-1
 182 289 l 1,1,-1
 84 384 l 1,2,-1
 128 429 l 1,3,-1
 226 328 l 1,4,-1
 320 428 l 1,5,-1
 364 384 l 1,6,-1
 266 289 l 1,7,-1
 364 191 l 1,8,-1
 320 147 l 1,9,-1
 224 246 l 1,10,-1
 128 147 l 1,11,-1
 84 191 l 25,0,-1
EndSplineSet
EndChar
StartChar: Ucircumflex
Encoding: 219 219 142
Width: 512
VWidth: 0
Flags: W
HStem: 0 64<154.08 357.92> 556 20G<64 128 384 448> 640 21G<124 165.961 346.039 388>
VStem: 64 64<89.5488 576> 384 64<89.5488 576>
LayerCount: 2
Fore
SplineSet
448 207 m 2,0,1
 448 181 448 181 447.5 166.5 c 128,-1,2
 447 152 447 152 444 127 c 128,-1,3
 441 102 441 102 435 87 c 128,-1,4
 429 72 429 72 417.5 53.5 c 128,-1,5
 406 35 406 35 389.5 24.5 c 128,-1,6
 373 14 373 14 347 7 c 128,-1,7
 321 0 321 0 288 0 c 2,8,-1
 224 0 l 2,9,10
 191 0 191 0 165 7 c 128,-1,11
 139 14 139 14 122.5 24.5 c 128,-1,12
 106 35 106 35 94.5 53.5 c 128,-1,13
 83 72 83 72 77 87 c 128,-1,14
 71 102 71 102 68 127 c 128,-1,15
 65 152 65 152 64.5 166.5 c 128,-1,16
 64 181 64 181 64 207 c 2,17,-1
 64 576 l 1,18,-1
 128 576 l 1,19,-1
 128 213 l 2,20,21
 128 180 128 180 128.5 164 c 128,-1,22
 129 148 129 148 134 125 c 128,-1,23
 139 102 139 102 148.5 91.5 c 128,-1,24
 158 81 158 81 177 72.5 c 128,-1,25
 196 64 196 64 224 64 c 2,26,-1
 288 64 l 2,27,28
 316 64 316 64 335 72.5 c 128,-1,29
 354 81 354 81 363.5 91.5 c 128,-1,30
 373 102 373 102 378 125 c 128,-1,31
 383 148 383 148 383.5 164 c 128,-1,32
 384 180 384 180 384 213 c 2,33,-1
 384 576 l 1,34,-1
 448 576 l 1,35,-1
 448 207 l 2,0,1
96 688 m 1,36,-1
 256 832 l 1,37,-1
 416 688 l 1,38,-1
 368 640 l 1,39,-1
 256 742 l 1,40,-1
 144 640 l 1,41,-1
 96 688 l 1,36,-1
EndSplineSet
EndChar
StartChar: agrave
Encoding: 224 224 97
Width: 439
VWidth: 0
Flags: W
HStem: 0 64<136.106 311> 191 65<136.106 311> 384 64<119 286.35>
VStem: 55 65<81.3995 173.139> 311 64<64 191 256 359.086>
LayerCount: 2
Fore
SplineSet
311 191 m 1,0,-1
 212 191 l 2,1,2
 120 191 120 191 120 127.5 c 128,-1,3
 120 64 120 64 212 64 c 2,4,-1
 311 64 l 1,5,-1
 311 191 l 1,0,-1
311 256 m 1,6,7
 311 322 311 322 293 353 c 128,-1,8
 275 384 275 384 215 384 c 2,9,-1
 119 384 l 1,10,-1
 119 448 l 1,11,-1
 215 448 l 2,12,13
 248 448 248 448 274 441 c 128,-1,14
 300 434 300 434 316.5 423.5 c 128,-1,15
 333 413 333 413 344.5 394.5 c 128,-1,16
 356 376 356 376 362 361 c 128,-1,17
 368 346 368 346 371 321 c 128,-1,18
 374 296 374 296 374.5 281.5 c 128,-1,19
 375 267 375 267 375 241 c 2,20,-1
 375 0 l 1,21,-1
 212 0 l 2,22,23
 55 0 55 0 55 129 c 0,24,25
 55 256 55 256 212 256 c 2,26,-1
 311 256 l 1,6,7
272 512 m 1,27,-1
 128 656 l 1,28,-1
 176 704 l 1,29,-1
 320 560 l 1,30,-1
 272 512 l 1,27,-1
EndSplineSet
EndChar
StartChar: atilde
Encoding: 227 227 117
Width: 439
VWidth: 0
Flags: W
HStem: 0 64<136.106 311> 191 65<136.106 311> 384 64<119 286.35> 512 64<245.319 340.837> 576 64<107.163 205.887>
VStem: 32 64<512 564.609> 55 65<81.3995 173.139> 311 64<64 191 256 359.086> 352 64<587.391 640>
LayerCount: 2
Fore
SplineSet
311 191 m 1,0,-1
 212 191 l 2,1,2
 120 191 120 191 120 127.5 c 128,-1,3
 120 64 120 64 212 64 c 2,4,-1
 311 64 l 1,5,-1
 311 191 l 1,0,-1
311 256 m 1,6,7
 311 322 311 322 293 353 c 128,-1,8
 275 384 275 384 215 384 c 2,9,-1
 119 384 l 1,10,-1
 119 448 l 1,11,-1
 215 448 l 2,12,13
 248 448 248 448 274 441 c 128,-1,14
 300 434 300 434 316.5 423.5 c 128,-1,15
 333 413 333 413 344.5 394.5 c 128,-1,16
 356 376 356 376 362 361 c 128,-1,17
 368 346 368 346 371 321 c 128,-1,18
 374 296 374 296 374.5 281.5 c 128,-1,19
 375 267 375 267 375 241 c 2,20,-1
 375 0 l 1,21,-1
 212 0 l 2,22,23
 55 0 55 0 55 129 c 0,24,25
 55 256 55 256 212 256 c 2,26,-1
 311 256 l 1,6,7
416 640 m 1,27,28
 416 587 416 587 380.5 549.5 c 128,-1,29
 345 512 345 512 288 512 c 0,30,31
 265 512 265 512 220.5 544 c 128,-1,32
 176 576 176 576 160 576 c 0,33,34
 96 576 96 576 96 512 c 1,35,-1
 32 512 l 1,36,37
 32 565 32 565 67.5 602.5 c 128,-1,38
 103 640 103 640 160 640 c 0,39,40
 190 640 190 640 232 608 c 128,-1,41
 274 576 274 576 288 576 c 0,42,43
 352 576 352 576 352 640 c 1,44,-1
 416 640 l 1,27,28
EndSplineSet
EndChar
StartChar: aring
Encoding: 229 229 156
Width: 439
VWidth: 0
Flags: W
HStem: 0 64<136.106 311> 191 65<136.106 311> 384 64<119 286.35> 512 64<194.827 255.132> 640 64<194.827 255.132>
VStem: 55 65<81.3995 173.139> 128 65<577.868 638.038> 257 64<577.868 638.038> 311 64<64 191 256 359.086>
LayerCount: 2
Fore
SplineSet
311 191 m 1,0,-1
 212 191 l 2,1,2
 120 191 120 191 120 127.5 c 128,-1,3
 120 64 120 64 212 64 c 2,4,-1
 311 64 l 1,5,-1
 311 191 l 1,0,-1
311 256 m 1,6,7
 311 322 311 322 293 353 c 128,-1,8
 275 384 275 384 215 384 c 2,9,-1
 119 384 l 1,10,-1
 119 448 l 1,11,-1
 215 448 l 2,12,13
 248 448 248 448 274 441 c 128,-1,14
 300 434 300 434 316.5 423.5 c 128,-1,15
 333 413 333 413 344.5 394.5 c 128,-1,16
 356 376 356 376 362 361 c 128,-1,17
 368 346 368 346 371 321 c 128,-1,18
 374 296 374 296 374.5 281.5 c 128,-1,19
 375 267 375 267 375 241 c 2,20,-1
 375 0 l 1,21,-1
 212 0 l 2,22,23
 55 0 55 0 55 129 c 0,24,25
 55 256 55 256 212 256 c 2,26,-1
 311 256 l 1,6,7
193 608 m 128,-1,28
 193 596 193 596 202.5 586 c 128,-1,29
 212 576 212 576 225 576 c 128,-1,30
 238 576 238 576 247.5 586 c 128,-1,31
 257 596 257 596 257 608 c 128,-1,32
 257 620 257 620 247.5 630 c 128,-1,33
 238 640 238 640 225 640 c 128,-1,34
 212 640 212 640 202.5 630 c 128,-1,27
 193 620 193 620 193 608 c 128,-1,28
128 607 m 0,35,36
 128 647 128 647 157 675.5 c 128,-1,37
 186 704 186 704 225 704 c 128,-1,38
 264 704 264 704 292.5 675.5 c 128,-1,39
 321 647 321 647 321 607 c 0,40,41
 321 568 321 568 292.5 540 c 128,-1,42
 264 512 264 512 225 512 c 128,-1,43
 186 512 186 512 157 540 c 128,-1,44
 128 568 128 568 128 607 c 0,35,36
EndSplineSet
EndChar
StartChar: ccedilla
Encoding: 231 231 159
Width: 415
VWidth: 0
Flags: W
HStem: -178 64<81 264.991> 0 64<154.08 224 257 351> 0 4<191 257> 384 64<154.08 351>
VStem: 64.5 64<88.9141 359.086> 265 86<-129.474 -62.8575>
LayerCount: 2
Fore
SplineSet
224 0 m 2,0,1
 191 0 191 0 165 7 c 128,-1,2
 139 14 139 14 122.5 24.5 c 128,-1,3
 106 35 106 35 94.5 53.5 c 128,-1,4
 83 72 83 72 77 87 c 128,-1,5
 71 102 71 102 68 127 c 128,-1,6
 65 152 65 152 64.5 166.5 c 128,-1,7
 64 181 64 181 64 207 c 2,8,-1
 64 241 l 2,9,10
 64 267 64 267 64.5 281.5 c 128,-1,11
 65 296 65 296 68 321 c 128,-1,12
 71 346 71 346 77 361 c 128,-1,13
 83 376 83 376 94.5 394.5 c 128,-1,14
 106 413 106 413 122.5 423.5 c 128,-1,15
 139 434 139 434 165 441 c 128,-1,16
 191 448 191 448 224 448 c 2,17,-1
 351 448 l 1,18,-1
 351 384 l 1,19,-1
 224 384 l 2,20,21
 196 384 196 384 177 375.5 c 128,-1,22
 158 367 158 367 148.5 356.5 c 128,-1,23
 139 346 139 346 134 323 c 128,-1,24
 129 300 129 300 128.5 284 c 128,-1,25
 128 268 128 268 128 235 c 2,26,-1
 128 213 l 2,27,28
 128 180 128 180 128.5 164 c 128,-1,29
 129 148 129 148 134 125 c 128,-1,30
 139 102 139 102 148.5 91.5 c 128,-1,31
 158 81 158 81 177 72.5 c 128,-1,32
 196 64 196 64 224 64 c 2,33,-1
 351 64 l 1,34,-1
 351 0 l 1,35,-1
 224 0 l 2,0,1
257 4 m 1,36,37
 351 -65 351 -65 351 -119 c 0,38,39
 351 -146 351 -146 330.5 -162 c 128,-1,40
 310 -178 310 -178 272 -178 c 2,41,-1
 81 -178 l 1,42,-1
 81 -114 l 1,43,-1
 229 -114 l 2,44,45
 265 -114 265 -114 265 -92 c 0,46,47
 265 -85 265 -85 261 -76 c 128,-1,48
 257 -67 257 -67 253 -61 c 2,49,-1
 249 -56 l 1,50,-1
 181 4 l 1,51,-1
 257 4 l 1,36,37
EndSplineSet
EndChar
StartChar: edieresis
Encoding: 235 235 112
Width: 448
VWidth: 0
Flags: W
HStem: 0 64<152.65 384> 191 65<128 320> 395 65<157.442 293.014> 512 64<128 192 256 320>
VStem: 64.5 63.5<88.9141 191 256 365.537> 128 64<512 576> 256 64<512 576> 320 64<256 367.395>
LayerCount: 2
Fore
SplineSet
128 256 m 1,0,-1
 320 256 l 1,1,2
 320 326 320 326 302 360.5 c 128,-1,3
 284 395 284 395 224 395 c 0,4,5
 198 395 198 395 180 387 c 128,-1,6
 162 379 162 379 152 367.5 c 128,-1,7
 142 356 142 356 136.5 336.5 c 128,-1,8
 131 317 131 317 129.5 299.5 c 128,-1,9
 128 282 128 282 128 256 c 1,0,-1
128 191 m 1,10,11
 128 126 128 126 146 95 c 128,-1,12
 164 64 164 64 224 64 c 2,13,-1
 384 64 l 1,14,-1
 384 0 l 1,15,-1
 224 0 l 2,16,17
 191 0 191 0 165 7 c 128,-1,18
 139 14 139 14 122.5 24.5 c 128,-1,19
 106 35 106 35 94.5 53.5 c 128,-1,20
 83 72 83 72 77 87 c 128,-1,21
 71 102 71 102 68 127 c 128,-1,22
 65 152 65 152 64.5 166.5 c 128,-1,23
 64 181 64 181 64 207 c 2,24,-1
 64 241 l 2,25,26
 64 278 64 278 65 299.5 c 128,-1,27
 66 321 66 321 74.5 356 c 128,-1,28
 83 391 83 391 99 410.5 c 128,-1,29
 115 430 115 430 146.5 445 c 128,-1,30
 178 460 178 460 224 460 c 0,31,32
 268 460 268 460 299 446.5 c 128,-1,33
 330 433 330 433 346 414.5 c 128,-1,34
 362 396 362 396 371 365.5 c 128,-1,35
 380 335 380 335 382 311.5 c 128,-1,36
 384 288 384 288 384 255 c 2,37,-1
 384 191 l 1,38,-1
 128 191 l 1,10,11
128 512 m 1,39,-1
 128 576 l 1,40,-1
 192 576 l 1,41,-1
 192 512 l 1,42,-1
 128 512 l 1,39,-1
256 512 m 1,43,-1
 256 576 l 1,44,-1
 320 576 l 1,45,-1
 320 512 l 1,46,-1
 256 512 l 1,43,-1
EndSplineSet
EndChar
StartChar: igrave
Encoding: 236 236 145
Width: 192
VWidth: 0
Flags: W
HStem: 0 21G<64 128> 428 20G<64 128>
VStem: 64 64<0 448>
LayerCount: 2
Fore
SplineSet
64 448 m 25,0,-1
 128 448 l 1,1,-1
 128 0 l 1,2,-1
 64 0 l 1,3,-1
 64 448 l 25,0,-1
145 512 m 1,4,-1
 1 656 l 1,5,-1
 49 704 l 1,6,-1
 193 560 l 1,7,-1
 145 512 l 1,4,-1
EndSplineSet
EndChar
StartChar: icircumflex
Encoding: 238 238 147
Width: 192
VWidth: 0
Flags: W
HStem: 0 21G<64 128> 428 20G<64 128>
VStem: 64 64<0 448>
LayerCount: 2
Fore
SplineSet
64 448 m 25,0,-1
 128 448 l 1,1,-1
 128 0 l 1,2,-1
 64 0 l 1,3,-1
 64 448 l 25,0,-1
-63 560 m 1,4,-1
 97 704 l 1,5,-1
 257 560 l 1,6,-1
 209 512 l 1,7,-1
 97 614 l 1,8,-1
 -15 512 l 1,9,-1
 -63 560 l 1,4,-1
EndSplineSet
EndChar
StartChar: idieresis
Encoding: 239 239 148
Width: 192
VWidth: 0
Flags: W
HStem: 0 21G<64 128> 428 20G<64 128> 512 64<1 65 129 193>
VStem: 1 64<512 576> 64 64<0 448> 129 64<512 576>
LayerCount: 2
Fore
SplineSet
64 448 m 25,0,-1
 128 448 l 1,1,-1
 128 0 l 1,2,-1
 64 0 l 1,3,-1
 64 448 l 25,0,-1
1 512 m 1,4,-1
 1 576 l 1,5,-1
 65 576 l 1,6,-1
 65 512 l 1,7,-1
 1 512 l 1,4,-1
129 512 m 1,8,-1
 129 576 l 1,9,-1
 193 576 l 1,10,-1
 193 512 l 1,11,-1
 129 512 l 1,8,-1
EndSplineSet
EndChar
StartChar: ntilde
Encoding: 241 241 149
Width: 448
VWidth: 0
Flags: W
HStem: 0 21G<64 128 320 384> 384 64<128 292.688> 519 64<245.319 340.837> 583 64<107.163 205.887>
VStem: 32 64<519 571.609> 64 64<0 384> 320 64<0 357.197> 352 64<594.391 647>
LayerCount: 2
Fore
SplineSet
320 235 m 6,0,1
 320 268 320 268 319.5 284 c 128,-1,2
 319 300 319 300 314 323 c 128,-1,3
 309 346 309 346 298.5 356.5 c 128,-1,4
 288 367 288 367 268.5 375.5 c 128,-1,5
 249 384 249 384 220 384 c 2,6,-1
 128 384 l 1,7,-1
 128 0 l 1,8,-1
 64 0 l 1,9,-1
 64 448 l 1,10,-1
 223 448 l 2,11,12
 256 448 256 448 282.5 440.5 c 128,-1,13
 309 433 309 433 325.5 423 c 128,-1,14
 342 413 342 413 354 394 c 128,-1,15
 366 375 366 375 371.5 360.5 c 128,-1,16
 377 346 377 346 380 320.5 c 128,-1,17
 383 295 383 295 383.5 281 c 128,-1,18
 384 267 384 267 384 241 c 2,19,-1
 384 0 l 1,20,-1
 320 0 l 1,21,-1
 320 235 l 6,0,1
416 647 m 1,22,23
 416 594 416 594 380.5 556.5 c 128,-1,24
 345 519 345 519 288 519 c 0,25,26
 265 519 265 519 220.5 551 c 128,-1,27
 176 583 176 583 160 583 c 0,28,29
 96 583 96 583 96 519 c 1,30,-1
 32 519 l 1,31,32
 32 572 32 572 67.5 609.5 c 128,-1,33
 103 647 103 647 160 647 c 0,34,35
 190 647 190 647 232 615 c 128,-1,36
 274 583 274 583 288 583 c 0,37,38
 352 583 352 583 352 647 c 1,39,-1
 416 647 l 1,22,23
EndSplineSet
EndChar
StartChar: Ccircumflex
Encoding: 264 264 161
Width: 487
VWidth: 0
Flags: W
HStem: 0 64<154.08 416> 512 64<154.08 416> 640 21G<124 165.961 346.039 388>
VStem: 64 64<89.5488 486.451>
LayerCount: 2
Fore
SplineSet
224 0 m 2,0,1
 191 0 191 0 165 7 c 128,-1,2
 139 14 139 14 122.5 24.5 c 128,-1,3
 106 35 106 35 94.5 53.5 c 128,-1,4
 83 72 83 72 77 87 c 128,-1,5
 71 102 71 102 68 127 c 128,-1,6
 65 152 65 152 64.5 166.5 c 128,-1,7
 64 181 64 181 64 207 c 2,8,-1
 64 369 l 2,9,10
 64 395 64 395 64.5 409.5 c 128,-1,11
 65 424 65 424 68 449 c 128,-1,12
 71 474 71 474 77 489 c 128,-1,13
 83 504 83 504 94.5 522.5 c 128,-1,14
 106 541 106 541 122.5 551.5 c 128,-1,15
 139 562 139 562 165 569 c 128,-1,16
 191 576 191 576 224 576 c 2,17,-1
 416 576 l 1,18,-1
 416 512 l 1,19,-1
 224 512 l 2,20,21
 196 512 196 512 177 503.5 c 128,-1,22
 158 495 158 495 148.5 484.5 c 128,-1,23
 139 474 139 474 134 451 c 128,-1,24
 129 428 129 428 128.5 412 c 128,-1,25
 128 396 128 396 128 363 c 2,26,-1
 128 213 l 2,27,28
 128 180 128 180 128.5 164 c 128,-1,29
 129 148 129 148 134 125 c 128,-1,30
 139 102 139 102 148.5 91.5 c 128,-1,31
 158 81 158 81 177 72.5 c 128,-1,32
 196 64 196 64 224 64 c 2,33,-1
 416 64 l 1,34,-1
 416 0 l 1,35,-1
 224 0 l 2,0,1
96 688 m 1,36,-1
 256 832 l 1,37,-1
 416 688 l 1,38,-1
 368 640 l 1,39,-1
 256 742 l 1,40,-1
 144 640 l 1,41,-1
 96 688 l 1,36,-1
EndSplineSet
EndChar
StartChar: ccircumflex
Encoding: 265 265 162
Width: 416
VWidth: 0
Flags: W
HStem: 0 64<154.08 352> 384 64<154.08 352>
VStem: 64.5 64<88.9141 359.086>
LayerCount: 2
Fore
SplineSet
224 0 m 2,0,1
 191 0 191 0 165 7 c 128,-1,2
 139 14 139 14 122.5 24.5 c 128,-1,3
 106 35 106 35 94.5 53.5 c 128,-1,4
 83 72 83 72 77 87 c 128,-1,5
 71 102 71 102 68 127 c 128,-1,6
 65 152 65 152 64.5 166.5 c 128,-1,7
 64 181 64 181 64 207 c 2,8,-1
 64 241 l 2,9,10
 64 267 64 267 64.5 281.5 c 128,-1,11
 65 296 65 296 68 321 c 128,-1,12
 71 346 71 346 77 361 c 128,-1,13
 83 376 83 376 94.5 394.5 c 128,-1,14
 106 413 106 413 122.5 423.5 c 128,-1,15
 139 434 139 434 165 441 c 128,-1,16
 191 448 191 448 224 448 c 2,17,-1
 352 448 l 1,18,-1
 352 384 l 1,19,-1
 224 384 l 2,20,21
 196 384 196 384 177 375.5 c 128,-1,22
 158 367 158 367 148.5 356.5 c 128,-1,23
 139 346 139 346 134 323 c 128,-1,24
 129 300 129 300 128.5 284 c 128,-1,25
 128 268 128 268 128 235 c 2,26,-1
 128 213 l 2,27,28
 128 180 128 180 128.5 164 c 128,-1,29
 129 148 129 148 134 125 c 128,-1,30
 139 102 139 102 148.5 91.5 c 128,-1,31
 158 81 158 81 177 72.5 c 128,-1,32
 196 64 196 64 224 64 c 2,33,-1
 352 64 l 1,34,-1
 352 0 l 1,35,-1
 224 0 l 2,0,1
64 560 m 1,36,-1
 224 704 l 1,37,-1
 384 560 l 1,38,-1
 336 512 l 1,39,-1
 224 614 l 1,40,-1
 112 512 l 1,41,-1
 64 560 l 1,36,-1
EndSplineSet
EndChar
StartChar: emacron
Encoding: 275 275 170
Width: 448
VWidth: 0
Flags: W
HStem: 0 64<152.65 384> 191 65<128 320> 395 65<157.442 293.014> 512 64<64 384>
VStem: 64.5 63.5<88.9141 191 256 365.537> 320 64<256 367.395>
LayerCount: 2
Fore
SplineSet
128 256 m 1,0,-1
 320 256 l 1,1,2
 320 326 320 326 302 360.5 c 128,-1,3
 284 395 284 395 224 395 c 0,4,5
 198 395 198 395 180 387 c 128,-1,6
 162 379 162 379 152 367.5 c 128,-1,7
 142 356 142 356 136.5 336.5 c 128,-1,8
 131 317 131 317 129.5 299.5 c 128,-1,9
 128 282 128 282 128 256 c 1,0,-1
128 191 m 1,10,11
 128 126 128 126 146 95 c 128,-1,12
 164 64 164 64 224 64 c 2,13,-1
 384 64 l 1,14,-1
 384 0 l 1,15,-1
 224 0 l 2,16,17
 191 0 191 0 165 7 c 128,-1,18
 139 14 139 14 122.5 24.5 c 128,-1,19
 106 35 106 35 94.5 53.5 c 128,-1,20
 83 72 83 72 77 87 c 128,-1,21
 71 102 71 102 68 127 c 128,-1,22
 65 152 65 152 64.5 166.5 c 128,-1,23
 64 181 64 181 64 207 c 2,24,-1
 64 241 l 2,25,26
 64 278 64 278 65 299.5 c 128,-1,27
 66 321 66 321 74.5 356 c 128,-1,28
 83 391 83 391 99 410.5 c 128,-1,29
 115 430 115 430 146.5 445 c 128,-1,30
 178 460 178 460 224 460 c 0,31,32
 268 460 268 460 299 446.5 c 128,-1,33
 330 433 330 433 346 414.5 c 128,-1,34
 362 396 362 396 371 365.5 c 128,-1,35
 380 335 380 335 382 311.5 c 128,-1,36
 384 288 384 288 384 255 c 2,37,-1
 384 191 l 1,38,-1
 128 191 l 1,10,11
64 576 m 25,39,-1
 384 576 l 1,40,-1
 384 512 l 1,41,-1
 64 512 l 1,42,-1
 64 576 l 25,39,-1
EndSplineSet
EndChar
StartChar: Edotaccent
Encoding: 278 278 195
Width: 512
VWidth: 0
Flags: W
HStem: 0 64<128 448> 255 65<128 384> 512 64<128 448> 643 128<192 320>
VStem: 64 64<64 255 320 512> 192 128<643 771>
LayerCount: 2
Fore
SplineSet
64 0 m 1,0,-1
 64 576 l 1,1,-1
 448 576 l 1,2,-1
 448 512 l 1,3,-1
 128 512 l 1,4,-1
 128 320 l 1,5,-1
 384 320 l 1,6,-1
 384 255 l 1,7,-1
 128 255 l 1,8,-1
 128 64 l 1,9,-1
 448 64 l 1,10,-1
 448 0 l 1,11,-1
 64 0 l 1,0,-1
192 643 m 1,12,-1
 192 771 l 1,13,-1
 320 771 l 1,14,-1
 320 643 l 1,15,-1
 192 643 l 1,12,-1
EndSplineSet
EndChar
StartChar: Gdotaccent
Encoding: 288 288 201
Width: 512
VWidth: 0
Flags: W
HStem: 0 64<154.08 384> 255 65<256 384> 512 64<154.08 448> 643 128<272 400>
VStem: 64 64<89.5488 486.451> 272 128<643 771> 384 64<64 255>
LayerCount: 2
Fore
SplineSet
448 576 m 1,0,-1
 448 512 l 1,1,-1
 224 512 l 2,2,3
 196 512 196 512 177 503.5 c 128,-1,4
 158 495 158 495 148.5 484.5 c 128,-1,5
 139 474 139 474 134 451 c 128,-1,6
 129 428 129 428 128.5 412 c 128,-1,7
 128 396 128 396 128 363 c 2,8,-1
 128 213 l 2,9,10
 128 180 128 180 128.5 164 c 128,-1,11
 129 148 129 148 134 125 c 128,-1,12
 139 102 139 102 148.5 91.5 c 128,-1,13
 158 81 158 81 177 72.5 c 128,-1,14
 196 64 196 64 224 64 c 2,15,-1
 384 64 l 1,16,-1
 384 255 l 1,17,-1
 256 255 l 1,18,-1
 256 320 l 1,19,-1
 448 320 l 1,20,-1
 448 0 l 1,21,-1
 224 0 l 2,22,23
 191 0 191 0 165 7 c 128,-1,24
 139 14 139 14 122.5 24.5 c 128,-1,25
 106 35 106 35 94.5 53.5 c 128,-1,26
 83 72 83 72 77 87 c 128,-1,27
 71 102 71 102 68 127 c 128,-1,28
 65 152 65 152 64.5 166.5 c 128,-1,29
 64 181 64 181 64 207 c 2,30,-1
 64 369 l 2,31,32
 64 395 64 395 64.5 409.5 c 128,-1,33
 65 424 65 424 68 449 c 128,-1,34
 71 474 71 474 77 489 c 128,-1,35
 83 504 83 504 94.5 522.5 c 128,-1,36
 106 541 106 541 122.5 551.5 c 128,-1,37
 139 562 139 562 165 569 c 128,-1,38
 191 576 191 576 224 576 c 2,39,-1
 448 576 l 1,0,-1
272 643 m 1,40,-1
 272 771 l 1,41,-1
 400 771 l 1,42,-1
 400 643 l 1,43,-1
 272 643 l 1,40,-1
EndSplineSet
EndChar
StartChar: gdotaccent
Encoding: 289 289 202
Width: 448
VWidth: 0
Flags: W
HStem: -192 64<96 295.35> 0 64<154.08 320> 384 64<154.08 320> 519 128<240 368>
VStem: 64.5 64<88.9141 359.086> 240 128<519 647> 320 64<-103.086 0 64 384>
LayerCount: 2
Fore
SplineSet
320 0 m 1,0,-1
 224 0 l 2,1,2
 191 0 191 0 165 7 c 128,-1,3
 139 14 139 14 122.5 24.5 c 128,-1,4
 106 35 106 35 94.5 53.5 c 128,-1,5
 83 72 83 72 77 87 c 128,-1,6
 71 102 71 102 68 127 c 128,-1,7
 65 152 65 152 64.5 166.5 c 128,-1,8
 64 181 64 181 64 207 c 2,9,-1
 64 241 l 2,10,11
 64 267 64 267 64.5 281.5 c 128,-1,12
 65 296 65 296 68 321 c 128,-1,13
 71 346 71 346 77 361 c 128,-1,14
 83 376 83 376 94.5 394.5 c 128,-1,15
 106 413 106 413 122.5 423.5 c 128,-1,16
 139 434 139 434 165 441 c 128,-1,17
 191 448 191 448 224 448 c 2,18,-1
 384 448 l 1,19,-1
 384 15 l 2,20,21
 384 -11 384 -11 383.5 -25.5 c 128,-1,22
 383 -40 383 -40 380 -65 c 128,-1,23
 377 -90 377 -90 371 -105 c 128,-1,24
 365 -120 365 -120 353.5 -138.5 c 128,-1,25
 342 -157 342 -157 325.5 -167.5 c 128,-1,26
 309 -178 309 -178 283 -185 c 128,-1,27
 257 -192 257 -192 224 -192 c 2,28,-1
 96 -192 l 1,29,-1
 96 -128 l 1,30,-1
 224 -128 l 2,31,32
 284 -128 284 -128 302 -97 c 128,-1,33
 320 -66 320 -66 320 0 c 1,0,-1
224 64 m 2,34,-1
 320 64 l 1,35,-1
 320 384 l 1,36,-1
 224 384 l 2,37,38
 196 384 196 384 177 375.5 c 128,-1,39
 158 367 158 367 148.5 356.5 c 128,-1,40
 139 346 139 346 134 323 c 128,-1,41
 129 300 129 300 128.5 284 c 128,-1,42
 128 268 128 268 128 235 c 2,43,-1
 128 213 l 2,44,45
 128 180 128 180 128.5 164 c 128,-1,46
 129 148 129 148 134 125 c 128,-1,47
 139 102 139 102 148.5 91.5 c 128,-1,48
 158 81 158 81 177 72.5 c 128,-1,49
 196 64 196 64 224 64 c 2,34,-1
240 519 m 1,50,-1
 240 647 l 1,51,-1
 368 647 l 1,52,-1
 368 519 l 1,53,-1
 240 519 l 1,50,-1
EndSplineSet
EndChar
StartChar: Hcircumflex
Encoding: 292 292 204
Width: 512
VWidth: 0
Flags: W
HStem: 0 21G<64 128 384 448> 255 65<128 384> 556 20G<64 128 384 448>
VStem: 64 64<0 255 320 576> 384 64<0 255 320 576>
LayerCount: 2
Fore
SplineSet
64 0 m 1,0,-1
 64 576 l 1,1,-1
 128 576 l 1,2,-1
 128 320 l 1,3,-1
 384 320 l 1,4,-1
 384 576 l 1,5,-1
 448 576 l 1,6,-1
 448 0 l 1,7,-1
 384 0 l 1,8,-1
 384 255 l 1,9,-1
 128 255 l 1,10,-1
 128 0 l 1,11,-1
 64 0 l 1,0,-1
96 691 m 1,12,-1
 256 835 l 1,13,-1
 416 691 l 1,14,-1
 368 643 l 1,15,-1
 256 745 l 1,16,-1
 144 643 l 1,17,-1
 96 691 l 1,12,-1
EndSplineSet
EndChar
StartChar: Itilde
Encoding: 296 296 206
Width: 448
VWidth: 0
Flags: W
HStem: 0 64<64 192 256 384> 512 64<64 192 256 384> 640 64<246.319 341.837> 704 64<108.163 206.887>
VStem: 33 64<640 692.609> 192 64<64 512> 353 64<715.391 768>
LayerCount: 2
Fore
SplineSet
64 0 m 1,0,-1
 64 64 l 1,1,-1
 192 64 l 1,2,-1
 192 512 l 1,3,-1
 64 512 l 1,4,-1
 64 576 l 1,5,-1
 384 576 l 1,6,-1
 384 512 l 1,7,-1
 256 512 l 1,8,-1
 256 64 l 1,9,-1
 384 64 l 1,10,-1
 384 0 l 1,11,-1
 64 0 l 1,0,-1
417 768 m 1,12,13
 417 715 417 715 381.5 677.5 c 128,-1,14
 346 640 346 640 289 640 c 0,15,16
 266 640 266 640 221.5 672 c 128,-1,17
 177 704 177 704 161 704 c 0,18,19
 97 704 97 704 97 640 c 1,20,-1
 33 640 l 1,21,22
 33 693 33 693 68.5 730.5 c 128,-1,23
 104 768 104 768 161 768 c 0,24,25
 191 768 191 768 233 736 c 128,-1,26
 275 704 275 704 289 704 c 0,27,28
 353 704 353 704 353 768 c 1,29,-1
 417 768 l 1,12,13
EndSplineSet
EndChar
StartChar: itilde
Encoding: 297 297 207
Width: 192
VWidth: 0
Flags: W
HStem: 0 21G<64 128> 428 20G<64 128> 512 64<118.319 213.837> 576 64<-19.8372 78.8873>
VStem: -95 64<512 564.609> 64 64<0 448> 225 64<587.391 640>
LayerCount: 2
Fore
SplineSet
64 448 m 25,0,-1
 128 448 l 1,1,-1
 128 0 l 1,2,-1
 64 0 l 1,3,-1
 64 448 l 25,0,-1
289 640 m 1,4,5
 289 587 289 587 253.5 549.5 c 128,-1,6
 218 512 218 512 161 512 c 0,7,8
 138 512 138 512 93.5 544 c 128,-1,9
 49 576 49 576 33 576 c 0,10,11
 -31 576 -31 576 -31 512 c 1,12,-1
 -95 512 l 1,13,14
 -95 565 -95 565 -59.5 602.5 c 128,-1,15
 -24 640 -24 640 33 640 c 0,16,17
 63 640 63 640 105 608 c 128,-1,18
 147 576 147 576 161 576 c 0,19,20
 225 576 225 576 225 640 c 1,21,-1
 289 640 l 1,4,5
EndSplineSet
EndChar
StartChar: Imacron
Encoding: 298 298 208
Width: 449
VWidth: 0
Flags: W
HStem: 0 64<64 192 256 385> 512 64<64 192 256 385> 640 64<65 386>
VStem: 192 64<64 512>
LayerCount: 2
Fore
SplineSet
64 0 m 1,0,-1
 64 64 l 1,1,-1
 192 64 l 1,2,-1
 192 512 l 1,3,-1
 64 512 l 1,4,-1
 64 576 l 1,5,-1
 385 576 l 1,6,-1
 385 512 l 1,7,-1
 256 512 l 1,8,-1
 256 64 l 1,9,-1
 385 64 l 1,10,-1
 385 0 l 1,11,-1
 64 0 l 1,0,-1
65 704 m 25,12,-1
 386 704 l 1,13,-1
 386 640 l 1,14,-1
 65 640 l 1,15,-1
 65 704 l 25,12,-1
EndSplineSet
EndChar
StartChar: dotlessi
Encoding: 305 305 150
Width: 192
VWidth: 0
Flags: W
HStem: 0 21G<64 128> 428 20G<64 128>
VStem: 64 64<0 448>
AnchorPoint: "bottom" 96 0 basechar 0
AnchorPoint: "top" 97 448 basechar 0
LayerCount: 2
Fore
SplineSet
64 448 m 25,0,-1
 128 448 l 1,1,-1
 128 0 l 1,2,-1
 64 0 l 1,3,-1
 64 448 l 25,0,-1
EndSplineSet
EndChar
StartChar: jcircumflex
Encoding: 309 309 212
Width: 320
VWidth: 0
Flags: W
HStem: -192 64<0 167.35> 428 20G<192 256>
VStem: 192 64<-103.086 448>
LayerCount: 2
Fore
SplineSet
192 0 m 2,0,-1
 192 448 l 1,1,-1
 256 448 l 1,2,-1
 256 15 l 2,3,4
 256 -11 256 -11 255.5 -25.5 c 128,-1,5
 255 -40 255 -40 252 -65 c 128,-1,6
 249 -90 249 -90 243 -105 c 128,-1,7
 237 -120 237 -120 225.5 -138.5 c 128,-1,8
 214 -157 214 -157 197.5 -167.5 c 128,-1,9
 181 -178 181 -178 155 -185 c 128,-1,10
 129 -192 129 -192 96 -192 c 2,11,-1
 0 -192 l 1,12,-1
 0 -128 l 1,13,-1
 96 -128 l 2,14,15
 156 -128 156 -128 174 -97 c 128,-1,16
 192 -66 192 -66 192 0 c 2,0,-1
64 567 m 1,17,-1
 224 711 l 1,18,-1
 384 567 l 1,19,-1
 336 519 l 1,20,-1
 224 621 l 1,21,-1
 112 519 l 1,22,-1
 64 567 l 1,17,-1
EndSplineSet
EndChar
StartChar: uni0136
Encoding: 310 310 213
Width: 512
VWidth: 0
Flags: W
HStem: -188 128<192 256> 0 21G<64 128 384 448> 255 65<128 299.692> 556 20G<64 128 384 448>
VStem: 64 64<0 255 320 576> 192 128<-188 -60> 384 64<0 162.859 410.051 576>
CounterMasks: 1 0e
LayerCount: 2
Fore
SplineSet
128 255 m 1,0,-1
 128 0 l 1,1,-1
 64 0 l 1,2,-1
 64 576 l 1,3,-1
 128 576 l 1,4,-1
 128 320 l 1,5,-1
 226 320 l 2,6,7
 289 320 289 320 336.5 373.5 c 128,-1,8
 384 427 384 427 384 512 c 2,9,-1
 384 576 l 1,10,-1
 448 576 l 1,11,-1
 448 512 l 2,12,13
 448 414 448 414 401.5 350 c 128,-1,14
 355 286 355 286 320 286 c 1,15,16
 355 286 355 286 401.5 224 c 128,-1,17
 448 162 448 162 448 64 c 2,18,-1
 448 0 l 1,19,-1
 384 0 l 1,20,-1
 384 64 l 2,21,22
 384 148 384 148 336 201.5 c 128,-1,23
 288 255 288 255 226 255 c 2,24,-1
 128 255 l 1,0,-1
192 -316 m 1,25,-1
 256 -188 l 1,26,-1
 192 -188 l 1,27,-1
 192 -60 l 1,28,-1
 320 -60 l 1,29,-1
 320 -188 l 1,30,-1
 256 -316 l 1,31,-1
 192 -316 l 1,25,-1
EndSplineSet
EndChar
StartChar: Lacute
Encoding: 313 313 215
Width: 480
VWidth: 0
Flags: W
HStem: 0 64<128 448> 556 20G<64 128>
VStem: 64 64<64 576>
LayerCount: 2
Fore
SplineSet
64 0 m 1,0,-1
 64 576 l 1,1,-1
 128 576 l 1,2,-1
 128 64 l 1,3,-1
 448 64 l 1,4,-1
 448 0 l 1,5,-1
 64 0 l 1,0,-1
96 643 m 1,6,-1
 48 691 l 1,7,-1
 192 835 l 1,8,-1
 240 787 l 1,9,-1
 96 643 l 1,6,-1
EndSplineSet
EndChar
StartChar: lacute
Encoding: 314 314 216
Width: 234
VWidth: 0
Flags: W
HStem: 620 20G<64 126>
VStem: 64 62<71.2239 640>
LayerCount: 2
Fore
SplineSet
64 640 m 1,0,-1
 126 640 l 1,1,-1
 126 146 l 2,2,3
 126 112 126 112 136 91 c 128,-1,4
 146 70 146 70 154.5 65.5 c 128,-1,5
 163 61 163 61 170 61 c 1,6,-1
 170 -4 l 1,7,8
 121 -4 121 -4 92.5 34 c 128,-1,9
 64 72 64 72 64 139 c 2,10,-1
 64 640 l 1,0,-1
95 699 m 1,11,-1
 47 747 l 1,12,-1
 191 892 l 1,13,-1
 239 844 l 1,14,-1
 95 699 l 1,11,-1
EndSplineSet
EndChar
StartChar: uni013B
Encoding: 315 315 217
Width: 480
VWidth: 0
Flags: W
HStem: -188 128<192 256> 0 64<128 448> 556 20G<64 128>
VStem: 64 64<64 576> 192 128<-188 -60>
LayerCount: 2
Fore
SplineSet
64 0 m 1,0,-1
 64 576 l 1,1,-1
 128 576 l 1,2,-1
 128 64 l 1,3,-1
 448 64 l 1,4,-1
 448 0 l 1,5,-1
 64 0 l 1,0,-1
192 -316 m 1,6,-1
 256 -188 l 1,7,-1
 192 -188 l 1,8,-1
 192 -60 l 1,9,-1
 320 -60 l 1,10,-1
 320 -188 l 1,11,-1
 256 -316 l 1,12,-1
 192 -316 l 1,6,-1
EndSplineSet
EndChar
StartChar: uni013C
Encoding: 316 316 218
Width: 234
VWidth: 0
Flags: W
HStem: -192 129<106 170> 620 20G<64 126>
VStem: 64 62<71.2239 640> 106 128<-192 -63>
LayerCount: 2
Fore
SplineSet
64 640 m 1,0,-1
 126 640 l 1,1,-1
 126 146 l 2,2,3
 126 112 126 112 136 91 c 128,-1,4
 146 70 146 70 154.5 65.5 c 128,-1,5
 163 61 163 61 170 61 c 1,6,-1
 170 -4 l 1,7,8
 121 -4 121 -4 92.5 34 c 128,-1,9
 64 72 64 72 64 139 c 2,10,-1
 64 640 l 1,0,-1
106 -320 m 1,11,-1
 170 -192 l 1,12,-1
 106 -192 l 1,13,-1
 106 -63 l 1,14,-1
 234 -63 l 1,15,-1
 234 -192 l 1,16,-1
 170 -320 l 1,17,-1
 106 -320 l 1,11,-1
EndSplineSet
EndChar
StartChar: Lcaron
Encoding: 317 317 219
Width: 480
VWidth: 0
Flags: W
HStem: 0 64<128 448> 455 128<538 602>
VStem: 64 64<64 576> 538 128<455 583>
LayerCount: 2
Fore
SplineSet
64 0 m 1,0,-1
 64 576 l 1,1,-1
 128 576 l 1,2,-1
 128 64 l 1,3,-1
 448 64 l 1,4,-1
 448 0 l 1,5,-1
 64 0 l 1,0,-1
538 327 m 1,6,-1
 602 455 l 1,7,-1
 538 455 l 1,8,-1
 538 583 l 1,9,-1
 666 583 l 1,10,-1
 666 455 l 1,11,-1
 602 327 l 1,12,-1
 538 327 l 1,6,-1
EndSplineSet
EndChar
StartChar: lcaron
Encoding: 318 318 220
Width: 234
VWidth: 0
Flags: W
HStem: 511 129<185 249>
VStem: 64 62<71.2239 640> 185 128<512 640>
LayerCount: 2
Fore
SplineSet
64 640 m 1,0,-1
 126 640 l 1,1,-1
 126 146 l 2,2,3
 126 112 126 112 136 91 c 128,-1,4
 146 70 146 70 154.5 65.5 c 128,-1,5
 163 61 163 61 170 61 c 1,6,-1
 170 -4 l 1,7,8
 121 -4 121 -4 92.5 34 c 128,-1,9
 64 72 64 72 64 139 c 2,10,-1
 64 640 l 1,0,-1
185 383 m 1,11,-1
 249 511 l 1,12,-1
 185 511 l 1,13,-1
 185 640 l 1,14,-1
 313 640 l 1,15,-1
 313 512 l 1,16,-1
 249 383 l 1,17,-1
 185 383 l 1,11,-1
EndSplineSet
EndChar
StartChar: Ldot
Encoding: 319 319 221
Width: 480
VWidth: 0
Flags: W
HStem: 0 64<128 448> 227 129<192 320> 556 20G<64 128>
VStem: 64 64<64 576> 192 128<227 356>
LayerCount: 2
Fore
SplineSet
64 0 m 1,0,-1
 64 576 l 1,1,-1
 128 576 l 1,2,-1
 128 64 l 1,3,-1
 448 64 l 1,4,-1
 448 0 l 1,5,-1
 64 0 l 1,0,-1
192 227 m 1,6,-1
 192 356 l 1,7,-1
 320 356 l 1,8,-1
 320 227 l 1,9,-1
 192 227 l 1,6,-1
EndSplineSet
EndChar
StartChar: ldot
Encoding: 320 320 222
Width: 458
VWidth: 0
Flags: W
HStem: 191 129<266 394> 620 20G<64 126>
VStem: 64 62<71.2239 640> 266 128<191 320>
LayerCount: 2
Fore
SplineSet
64 640 m 1,0,-1
 126 640 l 1,1,-1
 126 146 l 2,2,3
 126 112 126 112 136 91 c 128,-1,4
 146 70 146 70 154.5 65.5 c 128,-1,5
 163 61 163 61 170 61 c 1,6,-1
 170 -4 l 1,7,8
 121 -4 121 -4 92.5 34 c 128,-1,9
 64 72 64 72 64 139 c 2,10,-1
 64 640 l 1,0,-1
266 191 m 1,11,-1
 266 320 l 1,12,-1
 394 320 l 1,13,-1
 394 191 l 1,14,-1
 266 191 l 1,11,-1
EndSplineSet
EndChar
StartChar: uni0145
Encoding: 325 325 225
Width: 512
VWidth: 0
Flags: W
HStem: -188 128<192 256> 0 21G<64 128 372.468 448> 556 20G<64 139.532 384 448>
VStem: 64 64<0 444> 192 128<-188 -60> 384 64<132 576>
CounterMasks: 1 1c
LayerCount: 2
Fore
SplineSet
64 0 m 1,0,-1
 64 576 l 1,1,-1
 128 576 l 1,2,-1
 384 132 l 1,3,-1
 384 576 l 1,4,-1
 448 576 l 1,5,-1
 448 0 l 1,6,-1
 384 0 l 1,7,-1
 128 444 l 1,8,-1
 128 0 l 1,9,-1
 64 0 l 1,0,-1
192 -316 m 1,10,-1
 256 -188 l 1,11,-1
 192 -188 l 1,12,-1
 192 -60 l 1,13,-1
 320 -60 l 1,14,-1
 320 -188 l 1,15,-1
 256 -316 l 1,16,-1
 192 -316 l 1,10,-1
EndSplineSet
EndChar
StartChar: uni0157
Encoding: 343 343 232
Width: 392
VWidth: 0
Flags: W
HStem: -188 128<32 96> 0 21G<64 128> 384 64<183.017 352>
VStem: 32 128<-188 -60> 64 64<0 335.227 389 448>
LayerCount: 2
Fore
SplineSet
64 0 m 1,0,-1
 64 448 l 1,1,-1
 128 448 l 1,2,-1
 128 389 l 2,3,4
 128 393 128 393 132.5 400 c 128,-1,5
 137 407 137 407 148.5 415.5 c 128,-1,6
 160 424 160 424 177 431 c 128,-1,7
 194 438 194 438 222.5 443 c 128,-1,8
 251 448 251 448 285 448 c 2,9,-1
 352 448 l 1,10,-1
 352 384 l 1,11,-1
 284 384 l 2,12,13
 213 384 213 384 170.5 354 c 128,-1,14
 128 324 128 324 128 270 c 2,15,-1
 128 0 l 1,16,-1
 64 0 l 1,0,-1
32 -316 m 1,17,-1
 96 -188 l 1,18,-1
 32 -188 l 1,19,-1
 32 -60 l 1,20,-1
 160 -60 l 1,21,-1
 160 -188 l 1,22,-1
 96 -316 l 1,23,-1
 32 -316 l 1,17,-1
EndSplineSet
EndChar
StartChar: Rcaron
Encoding: 344 344 233
Width: 512
VWidth: 0
Flags: W
HStem: 0 21G<64 128 384 448> 255 65<128 299.692> 512 64<128 356.129>
VStem: 64 64<0 255 320 512> 384 64<0 163.107 349.252 484.971>
LayerCount: 2
Fore
SplineSet
128 255 m 1,0,-1
 128 0 l 1,1,-1
 64 0 l 1,2,-1
 64 576 l 1,3,-1
 288 576 l 2,4,5
 339 576 339 576 373 559 c 128,-1,6
 407 542 407 542 422 514 c 128,-1,7
 437 486 437 486 442.5 463.5 c 128,-1,8
 448 441 448 441 448 416 c 0,9,10
 445 301 445 301 361 267 c 1,11,12
 396 240 396 240 422 188 c 128,-1,13
 448 136 448 136 448 64 c 2,14,-1
 448 0 l 1,15,-1
 384 0 l 1,16,-1
 384 64 l 2,17,18
 384 148 384 148 336 201.5 c 128,-1,19
 288 255 288 255 226 255 c 2,20,-1
 128 255 l 1,0,-1
288 320 m 2,21,22
 318 320 318 320 338.5 330 c 128,-1,23
 359 340 359 340 368 357 c 128,-1,24
 377 374 377 374 380.5 388 c 128,-1,25
 384 402 384 402 384 417 c 128,-1,26
 384 432 384 432 380.5 446 c 128,-1,27
 377 460 377 460 368 476 c 128,-1,28
 359 492 359 492 338.5 502 c 128,-1,29
 318 512 318 512 288 512 c 2,30,-1
 128 512 l 1,31,-1
 128 320 l 1,32,-1
 288 320 l 2,21,22
16 787 m 1,33,-1
 64 835 l 1,34,-1
 176 733 l 1,35,-1
 288 835 l 1,36,-1
 336 787 l 1,37,-1
 176 643 l 1,38,-1
 16 787 l 1,33,-1
EndSplineSet
EndChar
StartChar: scedilla
Encoding: 351 351 240
Width: 448
VWidth: 0
Flags: W
HStem: -180 64<86 270.991> -4 6<186.176 263> 256.5 63.5<130.836 292.129> 384 64<130.836 352>
VStem: 64 64<74.4131 128 328.865 375.135> 271 86<-131.396 -64.8575> 320 64<90.1113 228.971>
LayerCount: 2
Fore
SplineSet
224 384 m 2,0,1
 128 384 128 384 128 352 c 128,-1,2
 128 320 128 320 224 320 c 0,3,4
 275 320 275 320 309 303 c 128,-1,5
 343 286 343 286 358 258 c 128,-1,6
 373 230 373 230 378.5 207.5 c 128,-1,7
 384 185 384 185 384 160 c 0,8,9
 384 141 384 141 381 123.5 c 128,-1,10
 378 106 378 106 368.5 81 c 128,-1,11
 359 56 359 56 342.5 38.5 c 128,-1,12
 326 21 326 21 295.5 8.5 c 128,-1,13
 265 -4 265 -4 224 -4 c 0,14,15
 186 -4 186 -4 160.5 0.5 c 128,-1,16
 135 5 135 5 111.5 18 c 128,-1,17
 88 31 88 31 76.5 58.5 c 128,-1,18
 65 86 65 86 64 128 c 1,19,-1
 128 128 l 1,20,21
 130 87 130 87 148.5 74 c 128,-1,22
 167 61 167 61 224 61 c 0,23,24
 254 61 254 61 274.5 71.5 c 128,-1,25
 295 82 295 82 304 99.5 c 128,-1,26
 313 117 313 117 316.5 131.5 c 128,-1,27
 320 146 320 146 320 161 c 128,-1,28
 320 176 320 176 316.5 190 c 128,-1,29
 313 204 313 204 304 220 c 128,-1,30
 295 236 295 236 274.5 246 c 128,-1,31
 254 256 254 256 224 256 c 0,32,33
 193 256 193 256 177 256.5 c 128,-1,34
 161 257 161 257 135.5 262 c 128,-1,35
 110 267 110 267 97.5 276.5 c 128,-1,36
 85 286 85 286 74.5 305 c 128,-1,37
 64 324 64 324 64 352 c 128,-1,38
 64 380 64 380 74.5 399 c 128,-1,39
 85 418 85 418 97.5 427.5 c 128,-1,40
 110 437 110 437 135.5 442 c 128,-1,41
 161 447 161 447 177 447.5 c 128,-1,42
 193 448 193 448 224 448 c 2,43,-1
 352 448 l 1,44,-1
 352 384 l 1,45,-1
 224 384 l 2,0,1
263 2 m 1,46,47
 357 -67 357 -67 357 -121 c 0,48,49
 357 -148 357 -148 336.5 -164 c 128,-1,50
 316 -180 316 -180 278 -180 c 2,51,-1
 86 -180 l 1,52,-1
 86 -116 l 1,53,-1
 234 -116 l 2,54,55
 271 -116 271 -116 271 -94 c 0,56,57
 271 -87 271 -87 267 -78 c 128,-1,58
 263 -69 263 -69 259 -63 c 2,59,-1
 254 -58 l 1,60,-1
 186 2 l 1,61,-1
 263 2 l 1,46,47
EndSplineSet
EndChar
StartChar: uni0162
Encoding: 354 354 243
Width: 545
VWidth: 0
Flags: W
HStem: -176 64<150 333.991> 0 6<256 320> 512 64<64 256 320 511>
VStem: 256 64<0 512> 334 86<-130.5 -60.8575>
LayerCount: 2
Fore
SplineSet
256 0 m 1,0,-1
 256 512 l 1,1,-1
 64 512 l 1,2,-1
 64 576 l 1,3,-1
 511 576 l 1,4,-1
 511 512 l 1,5,-1
 320 512 l 1,6,-1
 320 0 l 1,7,-1
 256 0 l 1,0,-1
326 6 m 1,8,9
 420 -63 420 -63 420 -117 c 0,10,11
 420 -144 420 -144 399.5 -160 c 128,-1,12
 379 -176 379 -176 341 -176 c 2,13,-1
 150 -176 l 1,14,-1
 150 -112 l 1,15,-1
 298 -112 l 2,16,17
 334 -112 334 -112 334 -90 c 0,18,19
 334 -83 334 -83 330 -74 c 128,-1,20
 326 -65 326 -65 322 -59 c 2,21,-1
 318 -54 l 1,22,-1
 250 6 l 1,23,-1
 326 6 l 1,8,9
EndSplineSet
EndChar
StartChar: uni0163
Encoding: 355 355 244
Width: 415
VWidth: 0
Flags: W
HStem: -176 64<199 382.991> 0 64<219.312 299 375 384> 0 6<299 375> 384 64<64 128 192 320> 620 20G<128 192>
VStem: 128 64<90.8035 384 448 640> 383 86<-130.5 -60.8575>
LayerCount: 2
Fore
SplineSet
384 64 m 1,0,-1
 384 0 l 1,1,-1
 289 0 l 2,2,3
 256 0 256 0 229.5 7.5 c 128,-1,4
 203 15 203 15 186.5 25 c 128,-1,5
 170 35 170 35 158 54 c 128,-1,6
 146 73 146 73 140.5 87.5 c 128,-1,7
 135 102 135 102 132 127.5 c 128,-1,8
 129 153 129 153 128.5 167 c 128,-1,9
 128 181 128 181 128 207 c 2,10,-1
 128 384 l 1,11,-1
 64 384 l 1,12,-1
 64 448 l 1,13,-1
 128 448 l 1,14,-1
 128 640 l 1,15,-1
 192 640 l 1,16,-1
 192 448 l 1,17,-1
 320 448 l 1,18,-1
 320 384 l 1,19,-1
 192 384 l 1,20,-1
 192 213 l 2,21,22
 192 180 192 180 192.5 164 c 128,-1,23
 193 148 193 148 198 125 c 128,-1,24
 203 102 203 102 213.5 91.5 c 128,-1,25
 224 81 224 81 243.5 72.5 c 128,-1,26
 263 64 263 64 292 64 c 2,27,-1
 384 64 l 1,0,-1
375 6 m 1,28,29
 469 -63 469 -63 469 -117 c 0,30,31
 469 -144 469 -144 448.5 -160 c 128,-1,32
 428 -176 428 -176 390 -176 c 2,33,-1
 199 -176 l 1,34,-1
 199 -112 l 1,35,-1
 347 -112 l 2,36,37
 383 -112 383 -112 383 -90 c 0,38,39
 383 -83 383 -83 379 -74 c 128,-1,40
 375 -65 375 -65 371 -59 c 2,41,-1
 367 -54 l 1,42,-1
 299 6 l 1,43,-1
 375 6 l 1,28,29
EndSplineSet
EndChar
StartChar: Tcaron
Encoding: 356 356 245
Width: 546
VWidth: 0
Flags: W
HStem: 0 21G<256 320> 512 64<64 256 320 512>
VStem: 256 64<0 512>
LayerCount: 2
Fore
SplineSet
256 0 m 1,0,-1
 256 512 l 1,1,-1
 64 512 l 1,2,-1
 64 576 l 1,3,-1
 512 576 l 1,4,-1
 512 512 l 1,5,-1
 320 512 l 1,6,-1
 320 0 l 1,7,-1
 256 0 l 1,0,-1
128 787 m 1,8,-1
 176 835 l 1,9,-1
 288 733 l 1,10,-1
 400 835 l 1,11,-1
 448 787 l 1,12,-1
 288 643 l 1,13,-1
 128 787 l 1,8,-1
EndSplineSet
EndChar
StartChar: Utilde
Encoding: 360 360 247
Width: 512
VWidth: 0
Flags: W
HStem: 0 64<154.08 357.92> 556 20G<64 128 384 448> 640 64<277.319 372.837> 704 64<139.163 237.887>
VStem: 64 64<89.5488 576 640 692.609> 384 64<89.5488 576 715.391 768>
LayerCount: 2
Fore
SplineSet
448 207 m 2,0,1
 448 181 448 181 447.5 166.5 c 128,-1,2
 447 152 447 152 444 127 c 128,-1,3
 441 102 441 102 435 87 c 128,-1,4
 429 72 429 72 417.5 53.5 c 128,-1,5
 406 35 406 35 389.5 24.5 c 128,-1,6
 373 14 373 14 347 7 c 128,-1,7
 321 0 321 0 288 0 c 2,8,-1
 224 0 l 2,9,10
 191 0 191 0 165 7 c 128,-1,11
 139 14 139 14 122.5 24.5 c 128,-1,12
 106 35 106 35 94.5 53.5 c 128,-1,13
 83 72 83 72 77 87 c 128,-1,14
 71 102 71 102 68 127 c 128,-1,15
 65 152 65 152 64.5 166.5 c 128,-1,16
 64 181 64 181 64 207 c 2,17,-1
 64 576 l 1,18,-1
 128 576 l 1,19,-1
 128 213 l 2,20,21
 128 180 128 180 128.5 164 c 128,-1,22
 129 148 129 148 134 125 c 128,-1,23
 139 102 139 102 148.5 91.5 c 128,-1,24
 158 81 158 81 177 72.5 c 128,-1,25
 196 64 196 64 224 64 c 2,26,-1
 288 64 l 2,27,28
 316 64 316 64 335 72.5 c 128,-1,29
 354 81 354 81 363.5 91.5 c 128,-1,30
 373 102 373 102 378 125 c 128,-1,31
 383 148 383 148 383.5 164 c 128,-1,32
 384 180 384 180 384 213 c 2,33,-1
 384 576 l 1,34,-1
 448 576 l 1,35,-1
 448 207 l 2,0,1
448 768 m 1,36,37
 448 715 448 715 412.5 677.5 c 128,-1,38
 377 640 377 640 320 640 c 0,39,40
 297 640 297 640 252.5 672 c 128,-1,41
 208 704 208 704 192 704 c 0,42,43
 128 704 128 704 128 640 c 1,44,-1
 64 640 l 1,45,46
 64 693 64 693 99.5 730.5 c 128,-1,47
 135 768 135 768 192 768 c 0,48,49
 222 768 222 768 264 736 c 128,-1,50
 306 704 306 704 320 704 c 0,51,52
 384 704 384 704 384 768 c 1,53,-1
 448 768 l 1,36,37
EndSplineSet
EndChar
StartChar: utilde
Encoding: 361 361 248
Width: 448
VWidth: 0
Flags: W
HStem: -5 64<155.475 293.777> 428 20G<64 128 320 384> 512 64<245.319 340.837> 576 64<107.163 205.887>
VStem: 32 64<512 564.609> 64 64<85.9751 448> 320 64<84.9766 448> 352 64<587.391 640>
LayerCount: 2
Fore
SplineSet
320 448 m 25,0,-1
 384 448 l 1,1,-1
 384 204 l 2,2,3
 384 167 384 167 383 146.5 c 128,-1,4
 382 126 382 126 373.5 93 c 128,-1,5
 365 60 365 60 349 41.5 c 128,-1,6
 333 23 333 23 301.5 9 c 128,-1,7
 270 -5 270 -5 224 -5 c 0,8,9
 191 -5 191 -5 165 2.5 c 128,-1,10
 139 10 139 10 122.5 20.5 c 128,-1,11
 106 31 106 31 94.5 50 c 128,-1,12
 83 69 83 69 77 84.5 c 128,-1,13
 71 100 71 100 68 125.5 c 128,-1,14
 65 151 65 151 64.5 166 c 128,-1,15
 64 181 64 181 64 207 c 2,16,-1
 64 448 l 1,17,-1
 128 448 l 1,18,-1
 128 213 l 2,19,20
 128 180 128 180 128.5 164 c 128,-1,21
 129 148 129 148 134 123.5 c 128,-1,22
 139 99 139 99 148.5 88 c 128,-1,23
 158 77 158 77 177 68 c 128,-1,24
 196 59 196 59 224 59 c 128,-1,25
 252 59 252 59 271 67.5 c 128,-1,26
 290 76 290 76 299.5 86.5 c 128,-1,27
 309 97 309 97 314 121 c 128,-1,28
 319 145 319 145 319.5 161.5 c 128,-1,29
 320 178 320 178 320 213 c 2,30,-1
 320 448 l 25,0,-1
416 640 m 1,31,32
 416 587 416 587 380.5 549.5 c 128,-1,33
 345 512 345 512 288 512 c 0,34,35
 265 512 265 512 220.5 544 c 128,-1,36
 176 576 176 576 160 576 c 0,37,38
 96 576 96 576 96 512 c 1,39,-1
 32 512 l 1,40,41
 32 565 32 565 67.5 602.5 c 128,-1,42
 103 640 103 640 160 640 c 0,43,44
 190 640 190 640 232 608 c 128,-1,45
 274 576 274 576 288 576 c 0,46,47
 352 576 352 576 352 640 c 1,48,-1
 416 640 l 1,31,32
EndSplineSet
EndChar
StartChar: Uring
Encoding: 366 366 251
Width: 512
VWidth: 0
Flags: W
HStem: 0 64<154.08 357.92> 556 20G<64 128 384 448> 640 64<226.827 287.132> 768 64<226.827 287.132>
VStem: 64 64<89.5488 576> 160 65<705.868 766.038> 289 64<705.868 766.038> 384 64<89.5488 576>
LayerCount: 2
Fore
SplineSet
448 207 m 2,0,1
 448 181 448 181 447.5 166.5 c 128,-1,2
 447 152 447 152 444 127 c 128,-1,3
 441 102 441 102 435 87 c 128,-1,4
 429 72 429 72 417.5 53.5 c 128,-1,5
 406 35 406 35 389.5 24.5 c 128,-1,6
 373 14 373 14 347 7 c 128,-1,7
 321 0 321 0 288 0 c 2,8,-1
 224 0 l 2,9,10
 191 0 191 0 165 7 c 128,-1,11
 139 14 139 14 122.5 24.5 c 128,-1,12
 106 35 106 35 94.5 53.5 c 128,-1,13
 83 72 83 72 77 87 c 128,-1,14
 71 102 71 102 68 127 c 128,-1,15
 65 152 65 152 64.5 166.5 c 128,-1,16
 64 181 64 181 64 207 c 2,17,-1
 64 576 l 1,18,-1
 128 576 l 1,19,-1
 128 213 l 2,20,21
 128 180 128 180 128.5 164 c 128,-1,22
 129 148 129 148 134 125 c 128,-1,23
 139 102 139 102 148.5 91.5 c 128,-1,24
 158 81 158 81 177 72.5 c 128,-1,25
 196 64 196 64 224 64 c 2,26,-1
 288 64 l 2,27,28
 316 64 316 64 335 72.5 c 128,-1,29
 354 81 354 81 363.5 91.5 c 128,-1,30
 373 102 373 102 378 125 c 128,-1,31
 383 148 383 148 383.5 164 c 128,-1,32
 384 180 384 180 384 213 c 2,33,-1
 384 576 l 1,34,-1
 448 576 l 1,35,-1
 448 207 l 2,0,1
225 736 m 128,-1,37
 225 724 225 724 234.5 714 c 128,-1,38
 244 704 244 704 257 704 c 128,-1,39
 270 704 270 704 279.5 714 c 128,-1,40
 289 724 289 724 289 736 c 128,-1,41
 289 748 289 748 279.5 758 c 128,-1,42
 270 768 270 768 257 768 c 128,-1,43
 244 768 244 768 234.5 758 c 128,-1,36
 225 748 225 748 225 736 c 128,-1,37
160 735 m 0,44,45
 160 775 160 775 189 803.5 c 128,-1,46
 218 832 218 832 257 832 c 128,-1,47
 296 832 296 832 324.5 803.5 c 128,-1,48
 353 775 353 775 353 735 c 0,49,50
 353 696 353 696 324.5 668 c 128,-1,51
 296 640 296 640 257 640 c 128,-1,52
 218 640 218 640 189 668 c 128,-1,53
 160 696 160 696 160 735 c 0,44,45
EndSplineSet
EndChar
StartChar: uring
Encoding: 367 367 252
Width: 448
VWidth: 0
Flags: W
HStem: -5 64<155.475 293.777> 428 20G<64 128 320 384> 512 64<194.827 255.132> 640 64<194.827 255.132>
VStem: 64 64<85.9751 448> 128 65<577.868 638.038> 257 64<577.868 638.038> 320 64<84.9766 448>
LayerCount: 2
Fore
SplineSet
320 448 m 25,0,-1
 384 448 l 1,1,-1
 384 204 l 2,2,3
 384 167 384 167 383 146.5 c 128,-1,4
 382 126 382 126 373.5 93 c 128,-1,5
 365 60 365 60 349 41.5 c 128,-1,6
 333 23 333 23 301.5 9 c 128,-1,7
 270 -5 270 -5 224 -5 c 0,8,9
 191 -5 191 -5 165 2.5 c 128,-1,10
 139 10 139 10 122.5 20.5 c 128,-1,11
 106 31 106 31 94.5 50 c 128,-1,12
 83 69 83 69 77 84.5 c 128,-1,13
 71 100 71 100 68 125.5 c 128,-1,14
 65 151 65 151 64.5 166 c 128,-1,15
 64 181 64 181 64 207 c 2,16,-1
 64 448 l 1,17,-1
 128 448 l 1,18,-1
 128 213 l 2,19,20
 128 180 128 180 128.5 164 c 128,-1,21
 129 148 129 148 134 123.5 c 128,-1,22
 139 99 139 99 148.5 88 c 128,-1,23
 158 77 158 77 177 68 c 128,-1,24
 196 59 196 59 224 59 c 128,-1,25
 252 59 252 59 271 67.5 c 128,-1,26
 290 76 290 76 299.5 86.5 c 128,-1,27
 309 97 309 97 314 121 c 128,-1,28
 319 145 319 145 319.5 161.5 c 128,-1,29
 320 178 320 178 320 213 c 2,30,-1
 320 448 l 25,0,-1
193 608 m 128,-1,32
 193 596 193 596 202.5 586 c 128,-1,33
 212 576 212 576 225 576 c 128,-1,34
 238 576 238 576 247.5 586 c 128,-1,35
 257 596 257 596 257 608 c 128,-1,36
 257 620 257 620 247.5 630 c 128,-1,37
 238 640 238 640 225 640 c 128,-1,38
 212 640 212 640 202.5 630 c 128,-1,31
 193 620 193 620 193 608 c 128,-1,32
128 607 m 0,39,40
 128 647 128 647 157 675.5 c 128,-1,41
 186 704 186 704 225 704 c 128,-1,42
 264 704 264 704 292.5 675.5 c 128,-1,43
 321 647 321 647 321 607 c 0,44,45
 321 568 321 568 292.5 540 c 128,-1,46
 264 512 264 512 225 512 c 128,-1,47
 186 512 186 512 157 540 c 128,-1,48
 128 568 128 568 128 607 c 0,39,40
EndSplineSet
EndChar
StartChar: zacute
Encoding: 378 378 257
Width: 448
VWidth: 0
Flags: W
HStem: 0 64<128 384> 384 64<64 320>
VStem: 64 64<64 90> 320 64<358 384>
LayerCount: 2
Fore
SplineSet
64 0 m 1,0,-1
 64 112 l 1,1,-1
 320 358 l 1,2,-1
 320 384 l 1,3,-1
 64 384 l 1,4,-1
 64 448 l 1,5,-1
 384 448 l 1,6,-1
 384 336 l 1,7,-1
 128 90 l 1,8,-1
 128 64 l 1,9,-1
 384 64 l 1,10,-1
 384 0 l 1,11,-1
 64 0 l 1,0,-1
224 519 m 1,12,-1
 176 567 l 1,13,-1
 320 711 l 1,14,-1
 368 663 l 1,15,-1
 224 519 l 1,12,-1
EndSplineSet
EndChar
StartChar: Zdotaccent
Encoding: 379 379 258
Width: 512
VWidth: 0
Flags: W
HStem: 0 64<128 448> 512 64<64 384> 643 128<192 320>
VStem: 64 64<64 154> 192 128<643 771> 384 64<486 512>
CounterMasks: 1 1c
LayerCount: 2
Fore
SplineSet
64 0 m 1,0,-1
 64 176 l 1,1,-1
 384 486 l 1,2,-1
 384 512 l 1,3,-1
 64 512 l 1,4,-1
 64 576 l 1,5,-1
 448 576 l 1,6,-1
 448 464 l 1,7,-1
 128 154 l 1,8,-1
 128 64 l 1,9,-1
 448 64 l 1,10,-1
 448 0 l 1,11,-1
 64 0 l 1,0,-1
192 643 m 1,12,-1
 192 771 l 1,13,-1
 320 771 l 1,14,-1
 320 643 l 1,15,-1
 192 643 l 1,12,-1
EndSplineSet
EndChar
StartChar: zdotaccent
Encoding: 380 380 259
Width: 448
VWidth: 0
Flags: W
HStem: 0 64<128 384> 384 64<64 320> 519 128<160 288>
VStem: 64 64<64 90> 160 128<519 647> 320 64<358 384>
CounterMasks: 1 1c
LayerCount: 2
Fore
SplineSet
64 0 m 1,0,-1
 64 112 l 1,1,-1
 320 358 l 1,2,-1
 320 384 l 1,3,-1
 64 384 l 1,4,-1
 64 448 l 1,5,-1
 384 448 l 1,6,-1
 384 336 l 1,7,-1
 128 90 l 1,8,-1
 128 64 l 1,9,-1
 384 64 l 1,10,-1
 384 0 l 1,11,-1
 64 0 l 1,0,-1
160 519 m 1,12,-1
 160 647 l 1,13,-1
 288 647 l 1,14,-1
 288 519 l 1,15,-1
 160 519 l 1,12,-1
EndSplineSet
EndChar
StartChar: uni01C1
Encoding: 449 449 275
Width: 352
VWidth: 0
Flags: W
HStem: 620 20G<64 128 224 288>
VStem: 64 64<-193 640> 224 64<-193 640>
LayerCount: 2
Fore
SplineSet
64 -193 m 1,0,-1
 64 640 l 1,1,-1
 128 640 l 1,2,-1
 128 -193 l 1,3,-1
 64 -193 l 1,0,-1
224 -193 m 1,4,-1
 224 640 l 1,5,-1
 288 640 l 1,6,-1
 288 -193 l 1,7,-1
 224 -193 l 1,4,-1
EndSplineSet
EndChar
StartChar: uni01CF
Encoding: 463 463 280
Width: 449
VWidth: 0
Flags: W
HStem: 0 64<64 192 256 385> 512 64<64 192 256 385> 640 21G<202.778 247.361>
VStem: 192 64<64 512>
LayerCount: 2
Fore
SplineSet
64 0 m 1,0,-1
 64 64 l 1,1,-1
 192 64 l 1,2,-1
 192 512 l 1,3,-1
 64 512 l 1,4,-1
 64 576 l 1,5,-1
 385 576 l 1,6,-1
 385 512 l 1,7,-1
 256 512 l 1,8,-1
 256 64 l 1,9,-1
 385 64 l 1,10,-1
 385 0 l 1,11,-1
 64 0 l 1,0,-1
65 784 m 1,12,-1
 113 832 l 1,13,-1
 225 730 l 1,14,-1
 338 832 l 1,15,-1
 386 784 l 1,16,-1
 225 640 l 1,17,-1
 65 784 l 1,12,-1
EndSplineSet
EndChar
StartChar: uni01D4
Encoding: 468 468 267
Width: 448
VWidth: 0
Flags: W
HStem: -5 64<155.475 293.777> 428 20G<64 128 320 384>
VStem: 64 64<85.9751 448> 320 64<84.9766 448>
LayerCount: 2
Fore
SplineSet
320 448 m 25,0,-1
 384 448 l 1,1,-1
 384 204 l 2,2,3
 384 167 384 167 383 146.5 c 128,-1,4
 382 126 382 126 373.5 93 c 128,-1,5
 365 60 365 60 349 41.5 c 128,-1,6
 333 23 333 23 301.5 9 c 128,-1,7
 270 -5 270 -5 224 -5 c 0,8,9
 191 -5 191 -5 165 2.5 c 128,-1,10
 139 10 139 10 122.5 20.5 c 128,-1,11
 106 31 106 31 94.5 50 c 128,-1,12
 83 69 83 69 77 84.5 c 128,-1,13
 71 100 71 100 68 125.5 c 128,-1,14
 65 151 65 151 64.5 166 c 128,-1,15
 64 181 64 181 64 207 c 2,16,-1
 64 448 l 1,17,-1
 128 448 l 1,18,-1
 128 213 l 2,19,20
 128 180 128 180 128.5 164 c 128,-1,21
 129 148 129 148 134 123.5 c 128,-1,22
 139 99 139 99 148.5 88 c 128,-1,23
 158 77 158 77 177 68 c 128,-1,24
 196 59 196 59 224 59 c 128,-1,25
 252 59 252 59 271 67.5 c 128,-1,26
 290 76 290 76 299.5 86.5 c 128,-1,27
 309 97 309 97 314 121 c 128,-1,28
 319 145 319 145 319.5 161.5 c 128,-1,29
 320 178 320 178 320 213 c 2,30,-1
 320 448 l 25,0,-1
64 656 m 1,31,-1
 112 704 l 1,32,-1
 224 602 l 1,33,-1
 336 704 l 1,34,-1
 384 656 l 1,35,-1
 224 512 l 1,36,-1
 64 656 l 1,31,-1
EndSplineSet
EndChar
StartChar: uni01D5
Encoding: 469 469 268
Width: 512
VWidth: 0
Flags: W
HStem: 0 64<154.08 357.92> 556 20G<64 128 384 448> 640 64<160 224 288 352> 764 64<96 416>
VStem: 64 64<89.5488 576> 160 64<640 704> 288 64<640 704> 384 64<89.5488 576>
LayerCount: 2
Fore
SplineSet
448 207 m 2,0,1
 448 181 448 181 447.5 166.5 c 128,-1,2
 447 152 447 152 444 127 c 128,-1,3
 441 102 441 102 435 87 c 128,-1,4
 429 72 429 72 417.5 53.5 c 128,-1,5
 406 35 406 35 389.5 24.5 c 128,-1,6
 373 14 373 14 347 7 c 128,-1,7
 321 0 321 0 288 0 c 2,8,-1
 224 0 l 2,9,10
 191 0 191 0 165 7 c 128,-1,11
 139 14 139 14 122.5 24.5 c 128,-1,12
 106 35 106 35 94.5 53.5 c 128,-1,13
 83 72 83 72 77 87 c 128,-1,14
 71 102 71 102 68 127 c 128,-1,15
 65 152 65 152 64.5 166.5 c 128,-1,16
 64 181 64 181 64 207 c 2,17,-1
 64 576 l 1,18,-1
 128 576 l 1,19,-1
 128 213 l 2,20,21
 128 180 128 180 128.5 164 c 128,-1,22
 129 148 129 148 134 125 c 128,-1,23
 139 102 139 102 148.5 91.5 c 128,-1,24
 158 81 158 81 177 72.5 c 128,-1,25
 196 64 196 64 224 64 c 2,26,-1
 288 64 l 2,27,28
 316 64 316 64 335 72.5 c 128,-1,29
 354 81 354 81 363.5 91.5 c 128,-1,30
 373 102 373 102 378 125 c 128,-1,31
 383 148 383 148 383.5 164 c 128,-1,32
 384 180 384 180 384 213 c 2,33,-1
 384 576 l 1,34,-1
 448 576 l 1,35,-1
 448 207 l 2,0,1
160 640 m 1,36,-1
 160 704 l 1,37,-1
 224 704 l 1,38,-1
 224 640 l 1,39,-1
 160 640 l 1,36,-1
288 640 m 1,40,-1
 288 704 l 1,41,-1
 352 704 l 1,42,-1
 352 640 l 1,43,-1
 288 640 l 1,40,-1
96 828 m 25,44,-1
 416 828 l 1,45,-1
 416 764 l 1,46,-1
 96 764 l 1,47,-1
 96 828 l 25,44,-1
EndSplineSet
EndChar
StartChar: uni01D6
Encoding: 470 470 269
Width: 448
VWidth: 0
Flags: W
HStem: -5 64<155.475 293.777> 428 20G<64 128 320 384> 512 64<128 192 256 320> 636 64<64 384>
VStem: 64 64<85.9751 448> 128 64<512 576> 256 64<512 576> 320 64<84.9766 448>
LayerCount: 2
Fore
SplineSet
320 448 m 25,0,-1
 384 448 l 1,1,-1
 384 204 l 2,2,3
 384 167 384 167 383 146.5 c 128,-1,4
 382 126 382 126 373.5 93 c 128,-1,5
 365 60 365 60 349 41.5 c 128,-1,6
 333 23 333 23 301.5 9 c 128,-1,7
 270 -5 270 -5 224 -5 c 0,8,9
 191 -5 191 -5 165 2.5 c 128,-1,10
 139 10 139 10 122.5 20.5 c 128,-1,11
 106 31 106 31 94.5 50 c 128,-1,12
 83 69 83 69 77 84.5 c 128,-1,13
 71 100 71 100 68 125.5 c 128,-1,14
 65 151 65 151 64.5 166 c 128,-1,15
 64 181 64 181 64 207 c 2,16,-1
 64 448 l 1,17,-1
 128 448 l 1,18,-1
 128 213 l 2,19,20
 128 180 128 180 128.5 164 c 128,-1,21
 129 148 129 148 134 123.5 c 128,-1,22
 139 99 139 99 148.5 88 c 128,-1,23
 158 77 158 77 177 68 c 128,-1,24
 196 59 196 59 224 59 c 128,-1,25
 252 59 252 59 271 67.5 c 128,-1,26
 290 76 290 76 299.5 86.5 c 128,-1,27
 309 97 309 97 314 121 c 128,-1,28
 319 145 319 145 319.5 161.5 c 128,-1,29
 320 178 320 178 320 213 c 2,30,-1
 320 448 l 25,0,-1
128 512 m 1,31,-1
 128 576 l 1,32,-1
 192 576 l 1,33,-1
 192 512 l 1,34,-1
 128 512 l 1,31,-1
256 512 m 1,35,-1
 256 576 l 1,36,-1
 320 576 l 1,37,-1
 320 512 l 1,38,-1
 256 512 l 1,35,-1
64 700 m 25,39,-1
 384 700 l 1,40,-1
 384 636 l 1,41,-1
 64 636 l 1,42,-1
 64 700 l 25,39,-1
EndSplineSet
EndChar
StartChar: uni01F8
Encoding: 504 504 293
Width: 512
VWidth: 0
Flags: W
HStem: 0 21G<64 128 372.468 448> 556 20G<64 139.532 384 448>
VStem: 64 64<0 444> 384 64<132 576>
LayerCount: 2
Fore
SplineSet
64 0 m 1,0,-1
 64 576 l 1,1,-1
 128 576 l 1,2,-1
 384 132 l 1,3,-1
 384 576 l 1,4,-1
 448 576 l 1,5,-1
 448 0 l 1,6,-1
 384 0 l 1,7,-1
 128 444 l 1,8,-1
 128 0 l 1,9,-1
 64 0 l 1,0,-1
256 643 m 1,10,-1
 112 787 l 1,11,-1
 160 835 l 1,12,-1
 304 691 l 1,13,-1
 256 643 l 1,10,-1
EndSplineSet
EndChar
StartChar: uni01F9
Encoding: 505 505 294
Width: 448
VWidth: 0
Flags: W
HStem: 0 21G<64 128 320 384> 384 64<128 292.688>
VStem: 64 64<0 384> 320 64<0 357.197>
LayerCount: 2
Fore
SplineSet
320 235 m 6,0,1
 320 268 320 268 319.5 284 c 128,-1,2
 319 300 319 300 314 323 c 128,-1,3
 309 346 309 346 298.5 356.5 c 128,-1,4
 288 367 288 367 268.5 375.5 c 128,-1,5
 249 384 249 384 220 384 c 2,6,-1
 128 384 l 1,7,-1
 128 0 l 1,8,-1
 64 0 l 1,9,-1
 64 448 l 1,10,-1
 223 448 l 2,11,12
 256 448 256 448 282.5 440.5 c 128,-1,13
 309 433 309 433 325.5 423 c 128,-1,14
 342 413 342 413 354 394 c 128,-1,15
 366 375 366 375 371.5 360.5 c 128,-1,16
 377 346 377 346 380 320.5 c 128,-1,17
 383 295 383 295 383.5 281 c 128,-1,18
 384 267 384 267 384 241 c 2,19,-1
 384 0 l 1,20,-1
 320 0 l 1,21,-1
 320 235 l 6,0,1
224 519 m 1,22,-1
 80 663 l 1,23,-1
 128 711 l 1,24,-1
 272 567 l 1,25,-1
 224 519 l 1,22,-1
EndSplineSet
EndChar
StartChar: Aringacute
Encoding: 506 506 276
Width: 512
VWidth: 0
Flags: W
HStem: 0 21G<64 128 384 448> 191 65<128 384> 512 64<155.312 356.688> 640 64<227.827 288.132> 768 64<227.827 288.132>
VStem: 64 64<0 191 256 485.197> 161 65<705.868 766.038> 290 64<705.868 766.038> 384 64<0 191 256 485.197>
LayerCount: 2
Fore
SplineSet
225 576 m 2,0,-1
 287 576 l 2,1,2
 320 576 320 576 346.5 568.5 c 128,-1,3
 373 561 373 561 389.5 551 c 128,-1,4
 406 541 406 541 418 522 c 128,-1,5
 430 503 430 503 435.5 488.5 c 128,-1,6
 441 474 441 474 444 448.5 c 128,-1,7
 447 423 447 423 447.5 409 c 128,-1,8
 448 395 448 395 448 369 c 2,9,-1
 448 0 l 1,10,-1
 384 0 l 1,11,-1
 384 191 l 1,12,-1
 128 191 l 1,13,-1
 128 0 l 1,14,-1
 64 0 l 1,15,-1
 64 369 l 2,16,17
 64 395 64 395 64.5 409 c 128,-1,18
 65 423 65 423 68 448.5 c 128,-1,19
 71 474 71 474 76.5 488.5 c 128,-1,20
 82 503 82 503 94 522 c 128,-1,21
 106 541 106 541 122.5 551 c 128,-1,22
 139 561 139 561 165.5 568.5 c 128,-1,23
 192 576 192 576 225 576 c 2,0,-1
284 512 m 2,24,-1
 228 512 l 2,25,26
 199 512 199 512 179.5 503.5 c 128,-1,27
 160 495 160 495 149.5 484.5 c 128,-1,28
 139 474 139 474 134 451 c 128,-1,29
 129 428 129 428 128.5 412 c 128,-1,30
 128 396 128 396 128 363 c 2,31,-1
 128 256 l 1,32,-1
 384 256 l 1,33,-1
 384 363 l 2,34,35
 384 396 384 396 383.5 412 c 128,-1,36
 383 428 383 428 378 451 c 128,-1,37
 373 474 373 474 362.5 484.5 c 128,-1,38
 352 495 352 495 332.5 503.5 c 128,-1,39
 313 512 313 512 284 512 c 2,24,-1
226 736 m 128,-1,41
 226 724 226 724 235.5 714 c 128,-1,42
 245 704 245 704 258 704 c 128,-1,43
 271 704 271 704 280.5 714 c 128,-1,44
 290 724 290 724 290 736 c 128,-1,45
 290 748 290 748 280.5 758 c 128,-1,46
 271 768 271 768 258 768 c 128,-1,47
 245 768 245 768 235.5 758 c 128,-1,40
 226 748 226 748 226 736 c 128,-1,41
161 735 m 0,48,49
 161 775 161 775 190 803.5 c 128,-1,50
 219 832 219 832 258 832 c 128,-1,51
 297 832 297 832 325.5 803.5 c 128,-1,52
 354 775 354 775 354 735 c 0,53,54
 354 696 354 696 325.5 668 c 128,-1,55
 297 640 297 640 258 640 c 128,-1,56
 219 640 219 640 190 668 c 128,-1,57
 161 696 161 696 161 735 c 0,48,49
258 892 m 1,58,-1
 210 940 l 1,59,-1
 354 1084 l 1,60,-1
 402 1036 l 1,61,-1
 258 892 l 1,58,-1
EndSplineSet
EndChar
StartChar: uni0218
Encoding: 536 536 295
Width: 513
VWidth: 0
Flags: W
HStem: -193 128<192 256> -5 64<154.917 358.078> 320 64<145.106 359.52> 512 64<145.106 417>
VStem: 64 64<86.42 192 401.466 495.169> 192 128<-193 -65> 385 64<86.6599 293.825>
LayerCount: 2
Fore
SplineSet
221 512 m 2,0,1
 128 512 128 512 128 448 c 128,-1,2
 128 384 128 384 221 384 c 2,3,-1
 287 384 l 2,4,5
 330 384 330 384 361.5 372 c 128,-1,6
 393 360 393 360 409.5 342.5 c 128,-1,7
 426 325 426 325 435.5 297 c 128,-1,8
 445 269 445 269 447 246.5 c 128,-1,9
 449 224 449 224 449 192 c 128,-1,10
 449 160 449 160 447 137 c 128,-1,11
 445 114 445 114 435.5 85 c 128,-1,12
 426 56 426 56 409.5 38 c 128,-1,13
 393 20 393 20 362 7.5 c 128,-1,14
 331 -5 331 -5 288 -5 c 2,15,-1
 224 -5 l 2,16,17
 181 -5 181 -5 150 8 c 128,-1,18
 119 21 119 21 103 38.5 c 128,-1,19
 87 56 87 56 78 85.5 c 128,-1,20
 69 115 69 115 66.5 137 c 128,-1,21
 64 159 64 159 64 192 c 1,22,-1
 128 192 l 1,23,24
 128 159 128 159 131 139 c 128,-1,25
 134 119 134 119 143 98.5 c 128,-1,26
 152 78 152 78 172 68.5 c 128,-1,27
 192 59 192 59 224 59 c 2,28,-1
 288 59 l 2,29,30
 348 59 348 59 366.5 92.5 c 128,-1,31
 385 126 385 126 385 192 c 0,32,33
 385 257 385 257 366.5 288.5 c 128,-1,34
 348 320 348 320 288 320 c 2,35,-1
 221 320 l 2,36,37
 64 320 64 320 64 449 c 0,38,39
 64 576 64 576 221 576 c 2,40,-1
 417 576 l 1,41,-1
 417 512 l 1,42,-1
 221 512 l 2,0,1
192 -321 m 1,43,-1
 256 -193 l 1,44,-1
 192 -193 l 1,45,-1
 192 -65 l 1,46,-1
 320 -65 l 1,47,-1
 320 -193 l 1,48,-1
 256 -321 l 1,49,-1
 192 -321 l 1,43,-1
EndSplineSet
EndChar
StartChar: uni021A
Encoding: 538 538 297
Width: 546
VWidth: 0
Flags: W
HStem: -188 128<224 288> 0 21G<256 320> 512 64<64 256 320 512>
VStem: 224 128<-188 -60> 256 64<0 512>
LayerCount: 2
Fore
SplineSet
256 0 m 1,0,-1
 256 512 l 1,1,-1
 64 512 l 1,2,-1
 64 576 l 1,3,-1
 512 576 l 1,4,-1
 512 512 l 1,5,-1
 320 512 l 1,6,-1
 320 0 l 1,7,-1
 256 0 l 1,0,-1
224 -316 m 1,8,-1
 288 -188 l 1,9,-1
 224 -188 l 1,10,-1
 224 -60 l 1,11,-1
 352 -60 l 1,12,-1
 352 -188 l 1,13,-1
 288 -316 l 1,14,-1
 224 -316 l 1,8,-1
EndSplineSet
EndChar
StartChar: uni021B
Encoding: 539 539 298
Width: 416
VWidth: 0
Flags: W
HStem: -188 128<273 337> 0 64<219.312 384> 384 64<64 128 192 320> 620 20G<128 192>
VStem: 128 64<90.8035 384 448 640> 273 128<-188 -60>
LayerCount: 2
Fore
SplineSet
384 64 m 1,0,-1
 384 0 l 1,1,-1
 289 0 l 2,2,3
 256 0 256 0 229.5 7.5 c 128,-1,4
 203 15 203 15 186.5 25 c 128,-1,5
 170 35 170 35 158 54 c 128,-1,6
 146 73 146 73 140.5 87.5 c 128,-1,7
 135 102 135 102 132 127.5 c 128,-1,8
 129 153 129 153 128.5 167 c 128,-1,9
 128 181 128 181 128 207 c 2,10,-1
 128 384 l 1,11,-1
 64 384 l 1,12,-1
 64 448 l 1,13,-1
 128 448 l 1,14,-1
 128 640 l 1,15,-1
 192 640 l 1,16,-1
 192 448 l 1,17,-1
 320 448 l 1,18,-1
 320 384 l 1,19,-1
 192 384 l 1,20,-1
 192 213 l 2,21,22
 192 180 192 180 192.5 164 c 128,-1,23
 193 148 193 148 198 125 c 128,-1,24
 203 102 203 102 213.5 91.5 c 128,-1,25
 224 81 224 81 243.5 72.5 c 128,-1,26
 263 64 263 64 292 64 c 2,27,-1
 384 64 l 1,0,-1
273 -316 m 1,28,-1
 337 -188 l 1,29,-1
 273 -188 l 1,30,-1
 273 -60 l 1,31,-1
 401 -60 l 1,32,-1
 401 -188 l 1,33,-1
 337 -316 l 1,34,-1
 273 -316 l 1,28,-1
EndSplineSet
EndChar
StartChar: uni021F
Encoding: 543 543 300
Width: 448
VWidth: 0
Flags: W
HStem: 0 21G<64 128 320 384> 384 64<128 292.688> 620 20G<64 128>
VStem: 64 64<0 384 448 640> 320 64<0 357.197>
LayerCount: 2
Fore
SplineSet
320 235 m 2,0,1
 320 268 320 268 319.5 284 c 128,-1,2
 319 300 319 300 314 323 c 128,-1,3
 309 346 309 346 298.5 356.5 c 128,-1,4
 288 367 288 367 268.5 375.5 c 128,-1,5
 249 384 249 384 220 384 c 2,6,-1
 128 384 l 1,7,-1
 128 0 l 1,8,-1
 64 0 l 1,9,-1
 64 640 l 1,10,-1
 128 640 l 1,11,-1
 128 448 l 1,12,-1
 223 448 l 2,13,14
 256 448 256 448 282.5 440.5 c 128,-1,15
 309 433 309 433 325.5 423 c 128,-1,16
 342 413 342 413 354 394 c 128,-1,17
 366 375 366 375 371.5 360.5 c 128,-1,18
 377 346 377 346 380 320.5 c 128,-1,19
 383 295 383 295 383.5 281 c 128,-1,20
 384 267 384 267 384 241 c 2,21,-1
 384 0 l 1,22,-1
 320 0 l 1,23,-1
 320 235 l 2,0,1
64 844 m 1,24,-1
 112 892 l 1,25,-1
 224 790 l 1,26,-1
 336 892 l 1,27,-1
 384 844 l 1,28,-1
 224 700 l 1,29,-1
 64 844 l 1,24,-1
EndSplineSet
EndChar
StartChar: uni0228
Encoding: 552 552 303
Width: 511
VWidth: 0
Flags: W
HStem: -176 64<118 301.991> 0 64<128 218 294 447> 0 6<218 294> 255 65<128 383> 512 64<128 447>
VStem: 64 64<64 255 320 512> 302 86<-127.474 -60.8575>
LayerCount: 2
Fore
SplineSet
64 0 m 1,0,-1
 64 576 l 1,1,-1
 447 576 l 1,2,-1
 447 512 l 1,3,-1
 128 512 l 1,4,-1
 128 320 l 1,5,-1
 383 320 l 1,6,-1
 383 255 l 1,7,-1
 128 255 l 1,8,-1
 128 64 l 1,9,-1
 447 64 l 1,10,-1
 447 0 l 1,11,-1
 64 0 l 1,0,-1
294 6 m 1,12,13
 388 -63 388 -63 388 -117 c 0,14,15
 388 -144 388 -144 367.5 -160 c 128,-1,16
 347 -176 347 -176 309 -176 c 2,17,-1
 118 -176 l 1,18,-1
 118 -112 l 1,19,-1
 266 -112 l 2,20,21
 302 -112 302 -112 302 -90 c 0,22,23
 302 -83 302 -83 298 -74 c 128,-1,24
 294 -65 294 -65 290 -59 c 2,25,-1
 286 -54 l 1,26,-1
 218 6 l 1,27,-1
 294 6 l 1,12,13
EndSplineSet
EndChar
StartChar: uni0229
Encoding: 553 553 304
Width: 447
VWidth: 0
Flags: W
HStem: -176 64<166 349.991> 0 64<152.65 266 342 384> 0 6<266 342> 192 64<128 320> 396 64<157.442 293.014>
VStem: 64.5 63.5<88.9141 192 256 366.559> 320 64<256 368.333> 350 86<-130.5 -60.8575>
LayerCount: 2
Fore
SplineSet
128 256 m 1,0,-1
 320 256 l 1,1,2
 320 327 320 327 302 361.5 c 128,-1,3
 284 396 284 396 224 396 c 0,4,5
 198 396 198 396 180 388 c 128,-1,6
 162 380 162 380 152 368.5 c 128,-1,7
 142 357 142 357 136.5 337 c 128,-1,8
 131 317 131 317 129.5 299.5 c 128,-1,9
 128 282 128 282 128 256 c 1,0,-1
128 192 m 1,10,11
 128 126 128 126 146 95 c 128,-1,12
 164 64 164 64 224 64 c 2,13,-1
 384 64 l 1,14,-1
 384 0 l 1,15,-1
 224 0 l 2,16,17
 191 0 191 0 165 7 c 128,-1,18
 139 14 139 14 122.5 24.5 c 128,-1,19
 106 35 106 35 94.5 53.5 c 128,-1,20
 83 72 83 72 77 87 c 128,-1,21
 71 102 71 102 68 127 c 128,-1,22
 65 152 65 152 64.5 166.5 c 128,-1,23
 64 181 64 181 64 207 c 2,24,-1
 64 241 l 2,25,26
 64 278 64 278 65 299.5 c 128,-1,27
 66 321 66 321 74.5 356 c 128,-1,28
 83 391 83 391 99 410.5 c 128,-1,29
 115 430 115 430 146.5 445 c 128,-1,30
 178 460 178 460 224 460 c 0,31,32
 268 460 268 460 299 446.5 c 128,-1,33
 330 433 330 433 346 414.5 c 128,-1,34
 362 396 362 396 371 365.5 c 128,-1,35
 380 335 380 335 382 312 c 128,-1,36
 384 289 384 289 384 256 c 2,37,-1
 384 192 l 1,38,-1
 128 192 l 1,10,11
342 6 m 1,39,40
 436 -63 436 -63 436 -117 c 0,41,42
 436 -144 436 -144 415.5 -160 c 128,-1,43
 395 -176 395 -176 357 -176 c 2,44,-1
 166 -176 l 1,45,-1
 166 -112 l 1,46,-1
 314 -112 l 2,47,48
 350 -112 350 -112 350 -90 c 0,49,50
 350 -83 350 -83 346 -74 c 128,-1,51
 342 -65 342 -65 338 -59 c 2,52,-1
 334 -54 l 1,53,-1
 266 6 l 1,54,-1
 342 6 l 1,39,40
EndSplineSet
EndChar
StartChar: uni022A
Encoding: 554 554 305
Width: 512
VWidth: 0
Flags: W
HStem: -4 65<190.528 325.001> 518 65<190.528 325.001> 639 65<160 224 288 352> 763 65<96 416>
VStem: 64 64<135.823 443.177> 160 64<639 704> 288 64<639 704> 384 64<135.037 443.963>
LayerCount: 2
Fore
SplineSet
384 251 m 2,0,-1
 384 328 l 2,1,2
 384 406 384 406 353 462 c 128,-1,3
 322 518 322 518 256 518 c 0,4,5
 211 518 211 518 181 487 c 128,-1,6
 151 456 151 456 139.5 415 c 128,-1,7
 128 374 128 374 128 328 c 2,8,-1
 128 251 l 2,9,10
 128 205 128 205 139.5 164 c 128,-1,11
 151 123 151 123 181 92 c 128,-1,12
 211 61 211 61 256 61 c 0,13,14
 322 61 322 61 353 117 c 128,-1,15
 384 173 384 173 384 251 c 2,0,-1
448 338 m 2,16,-1
 448 241 l 2,17,18
 448 211 448 211 443.5 181 c 128,-1,19
 439 151 439 151 426 116.5 c 128,-1,20
 413 82 413 82 392.5 56 c 128,-1,21
 372 30 372 30 336.5 13 c 128,-1,22
 301 -4 301 -4 256 -4 c 128,-1,23
 211 -4 211 -4 175.5 13.5 c 128,-1,24
 140 31 140 31 119.5 57 c 128,-1,25
 99 83 99 83 86 118 c 128,-1,26
 73 153 73 153 68.5 183 c 128,-1,27
 64 213 64 213 64 244 c 2,28,-1
 64 335 l 2,29,30
 64 366 64 366 68.5 396 c 128,-1,31
 73 426 73 426 86 461 c 128,-1,32
 99 496 99 496 119.5 522 c 128,-1,33
 140 548 140 548 175.5 565.5 c 128,-1,34
 211 583 211 583 256 583 c 128,-1,35
 301 583 301 583 336.5 566 c 128,-1,36
 372 549 372 549 392.5 523 c 128,-1,37
 413 497 413 497 426 462.5 c 128,-1,38
 439 428 439 428 443.5 398 c 128,-1,39
 448 368 448 368 448 338 c 2,16,-1
160 639 m 1,40,-1
 160 704 l 1,41,-1
 224 704 l 1,42,-1
 224 639 l 1,43,-1
 160 639 l 1,40,-1
288 639 m 1,44,-1
 288 704 l 1,45,-1
 352 704 l 1,46,-1
 352 639 l 1,47,-1
 288 639 l 1,44,-1
96 828 m 25,48,-1
 416 828 l 1,49,-1
 416 763 l 1,50,-1
 96 763 l 1,51,-1
 96 828 l 25,48,-1
EndSplineSet
EndChar
StartChar: uni022B
Encoding: 555 555 306
Width: 448
VWidth: 0
Flags: W
HStem: -5 64<155.475 292.298> 395 64<157.359 290.811> 512 64<128 192 256 320> 636 64<64 384>
VStem: 64 64<85.9751 365.915> 128 64<512 576> 256 64<512 576> 320 64<86.9399 365.817>
LayerCount: 2
Fore
SplineSet
320 213 m 2,0,-1
 320 235 l 2,1,2
 320 268 320 268 319.5 284.5 c 128,-1,3
 319 301 319 301 314 326 c 128,-1,4
 309 351 309 351 299.5 363.5 c 128,-1,5
 290 376 290 376 271 385.5 c 128,-1,6
 252 395 252 395 224 395 c 128,-1,7
 196 395 196 395 177 385.5 c 128,-1,8
 158 376 158 376 148.5 364 c 128,-1,9
 139 352 139 352 134 326.5 c 128,-1,10
 129 301 129 301 128.5 284.5 c 128,-1,11
 128 268 128 268 128 235 c 2,12,-1
 128 213 l 2,13,14
 128 180 128 180 128.5 164 c 128,-1,15
 129 148 129 148 134 123.5 c 128,-1,16
 139 99 139 99 148.5 88 c 128,-1,17
 158 77 158 77 177 68 c 128,-1,18
 196 59 196 59 224 59 c 128,-1,19
 252 59 252 59 271 68 c 128,-1,20
 290 77 290 77 299.5 88.5 c 128,-1,21
 309 100 309 100 314 124 c 128,-1,22
 319 148 319 148 319.5 164 c 128,-1,23
 320 180 320 180 320 213 c 2,0,-1
384 244 m 2,24,-1
 384 204 l 2,25,26
 384 167 384 167 383 146.5 c 128,-1,27
 382 126 382 126 373.5 93 c 128,-1,28
 365 60 365 60 349 41.5 c 128,-1,29
 333 23 333 23 301.5 9 c 128,-1,30
 270 -5 270 -5 224 -5 c 0,31,32
 191 -5 191 -5 165 2.5 c 128,-1,33
 139 10 139 10 122.5 20.5 c 128,-1,34
 106 31 106 31 94.5 50 c 128,-1,35
 83 69 83 69 77 84.5 c 128,-1,36
 71 100 71 100 68 125.5 c 128,-1,37
 65 151 65 151 64.5 166 c 128,-1,38
 64 181 64 181 64 207 c 2,39,-1
 64 241 l 2,40,41
 64 278 64 278 65 299.5 c 128,-1,42
 66 321 66 321 74.5 355.5 c 128,-1,43
 83 390 83 390 99 409.5 c 128,-1,44
 115 429 115 429 146.5 444 c 128,-1,45
 178 459 178 459 224 459 c 0,46,47
 262 459 262 459 291 450 c 128,-1,48
 320 441 320 441 336.5 422.5 c 128,-1,49
 353 404 353 404 363.5 386 c 128,-1,50
 374 368 374 368 378 339 c 128,-1,51
 382 310 382 310 383 292 c 128,-1,52
 384 274 384 274 384 244 c 2,24,-1
128 512 m 1,53,-1
 128 576 l 1,54,-1
 192 576 l 1,55,-1
 192 512 l 1,56,-1
 128 512 l 1,53,-1
256 512 m 1,57,-1
 256 576 l 1,58,-1
 320 576 l 1,59,-1
 320 512 l 1,60,-1
 256 512 l 1,57,-1
64 700 m 25,61,-1
 384 700 l 1,62,-1
 384 636 l 1,63,-1
 64 636 l 1,64,-1
 64 700 l 25,61,-1
EndSplineSet
EndChar
StartChar: uni022C
Encoding: 556 556 307
Width: 512
VWidth: 0
Flags: W
HStem: -4 65<190.528 325.001> 518 65<190.528 325.001> 639 65<277.319 372.837> 703 65<139.163 237.887> 827 65<160 480>
VStem: 64 64<135.823 443.177 639 691.079> 384 64<135.037 443.963 715.921 768>
LayerCount: 2
Fore
SplineSet
384 251 m 2,0,-1
 384 328 l 2,1,2
 384 406 384 406 353 462 c 128,-1,3
 322 518 322 518 256 518 c 0,4,5
 211 518 211 518 181 487 c 128,-1,6
 151 456 151 456 139.5 415 c 128,-1,7
 128 374 128 374 128 328 c 2,8,-1
 128 251 l 2,9,10
 128 205 128 205 139.5 164 c 128,-1,11
 151 123 151 123 181 92 c 128,-1,12
 211 61 211 61 256 61 c 0,13,14
 322 61 322 61 353 117 c 128,-1,15
 384 173 384 173 384 251 c 2,0,-1
448 338 m 2,16,-1
 448 241 l 2,17,18
 448 211 448 211 443.5 181 c 128,-1,19
 439 151 439 151 426 116.5 c 128,-1,20
 413 82 413 82 392.5 56 c 128,-1,21
 372 30 372 30 336.5 13 c 128,-1,22
 301 -4 301 -4 256 -4 c 128,-1,23
 211 -4 211 -4 175.5 13.5 c 128,-1,24
 140 31 140 31 119.5 57 c 128,-1,25
 99 83 99 83 86 118 c 128,-1,26
 73 153 73 153 68.5 183 c 128,-1,27
 64 213 64 213 64 244 c 2,28,-1
 64 335 l 2,29,30
 64 366 64 366 68.5 396 c 128,-1,31
 73 426 73 426 86 461 c 128,-1,32
 99 496 99 496 119.5 522 c 128,-1,33
 140 548 140 548 175.5 565.5 c 128,-1,34
 211 583 211 583 256 583 c 128,-1,35
 301 583 301 583 336.5 566 c 128,-1,36
 372 549 372 549 392.5 523 c 128,-1,37
 413 497 413 497 426 462.5 c 128,-1,38
 439 428 439 428 443.5 398 c 128,-1,39
 448 368 448 368 448 338 c 2,16,-1
448 768 m 1,40,41
 448 715 448 715 412.5 677 c 128,-1,42
 377 639 377 639 320 639 c 0,43,44
 297 639 297 639 252.5 671 c 128,-1,45
 208 703 208 703 192 703 c 0,46,47
 128 703 128 703 128 639 c 1,48,-1
 64 639 l 1,49,50
 64 692 64 692 99.5 730 c 128,-1,51
 135 768 135 768 192 768 c 0,52,53
 222 768 222 768 264 736 c 128,-1,54
 306 704 306 704 320 704 c 0,55,56
 384 704 384 704 384 768 c 1,57,-1
 448 768 l 1,40,41
160 892 m 25,58,-1
 480 892 l 1,59,-1
 480 827 l 1,60,-1
 160 827 l 1,61,-1
 160 892 l 25,58,-1
EndSplineSet
EndChar
StartChar: uni022D
Encoding: 557 557 308
Width: 448
VWidth: 0
Flags: W
HStem: -5 64<155.475 292.298> 395 64<157.359 290.811> 512 64<245.319 340.837> 575 65<106.749 207.106> 700 64<128 448>
VStem: 32 64<512 563.787> 64.5 64<85.4785 366.916> 320 64<86.9399 365.817> 352 64<587.391 640>
LayerCount: 2
Fore
SplineSet
320 213 m 2,0,-1
 320 235 l 2,1,2
 320 268 320 268 319.5 284.5 c 128,-1,3
 319 301 319 301 314 326 c 128,-1,4
 309 351 309 351 299.5 363.5 c 128,-1,5
 290 376 290 376 271 385.5 c 128,-1,6
 252 395 252 395 224 395 c 128,-1,7
 196 395 196 395 177 385.5 c 128,-1,8
 158 376 158 376 148.5 364 c 128,-1,9
 139 352 139 352 134 326.5 c 128,-1,10
 129 301 129 301 128.5 284.5 c 128,-1,11
 128 268 128 268 128 235 c 2,12,-1
 128 213 l 2,13,14
 128 180 128 180 128.5 164 c 128,-1,15
 129 148 129 148 134 123.5 c 128,-1,16
 139 99 139 99 148.5 88 c 128,-1,17
 158 77 158 77 177 68 c 128,-1,18
 196 59 196 59 224 59 c 128,-1,19
 252 59 252 59 271 68 c 128,-1,20
 290 77 290 77 299.5 88.5 c 128,-1,21
 309 100 309 100 314 124 c 128,-1,22
 319 148 319 148 319.5 164 c 128,-1,23
 320 180 320 180 320 213 c 2,0,-1
384 244 m 2,24,-1
 384 204 l 2,25,26
 384 167 384 167 383 146.5 c 128,-1,27
 382 126 382 126 373.5 93 c 128,-1,28
 365 60 365 60 349 41.5 c 128,-1,29
 333 23 333 23 301.5 9 c 128,-1,30
 270 -5 270 -5 224 -5 c 0,31,32
 191 -5 191 -5 165 2.5 c 128,-1,33
 139 10 139 10 122.5 20.5 c 128,-1,34
 106 31 106 31 94.5 50 c 128,-1,35
 83 69 83 69 77 84.5 c 128,-1,36
 71 100 71 100 68 125.5 c 128,-1,37
 65 151 65 151 64.5 166 c 128,-1,38
 64 181 64 181 64 207 c 2,39,-1
 64 241 l 2,40,41
 64 278 64 278 65 299.5 c 128,-1,42
 66 321 66 321 74.5 355.5 c 128,-1,43
 83 390 83 390 99 409.5 c 128,-1,44
 115 429 115 429 146.5 444 c 128,-1,45
 178 459 178 459 224 459 c 0,46,47
 262 459 262 459 291 450 c 128,-1,48
 320 441 320 441 336.5 422.5 c 128,-1,49
 353 404 353 404 363.5 386 c 128,-1,50
 374 368 374 368 378 339 c 128,-1,51
 382 310 382 310 383 292 c 128,-1,52
 384 274 384 274 384 244 c 2,24,-1
416 640 m 1,53,54
 416 587 416 587 380.5 549.5 c 128,-1,55
 345 512 345 512 288 512 c 0,56,57
 265 512 265 512 220.5 543.5 c 128,-1,58
 176 575 176 575 160 575 c 0,59,60
 96 575 96 575 96 512 c 1,61,-1
 32 512 l 1,62,63
 32 565 32 565 67.5 602.5 c 128,-1,64
 103 640 103 640 160 640 c 0,65,66
 190 640 190 640 232 608 c 128,-1,67
 274 576 274 576 288 576 c 0,68,69
 352 576 352 576 352 640 c 1,70,-1
 416 640 l 1,53,54
128 764 m 25,71,-1
 448 764 l 1,72,-1
 448 700 l 1,73,-1
 128 700 l 1,74,-1
 128 764 l 25,71,-1
EndSplineSet
EndChar
StartChar: uni022F
Encoding: 559 559 310
Width: 448
VWidth: 0
Flags: W
HStem: -6 65<155.475 292.298> 394 65<157.359 290.811> 511 129<160 288>
VStem: 64.5 64<85.4766 365.915> 160 128<511 640> 320 64<86.9323 364.513>
LayerCount: 2
Fore
SplineSet
320 213 m 2,0,-1
 320 234 l 2,1,2
 320 267 320 267 319.5 283.5 c 128,-1,3
 319 300 319 300 314 325 c 128,-1,4
 309 350 309 350 299.5 362.5 c 128,-1,5
 290 375 290 375 271 384.5 c 128,-1,6
 252 394 252 394 224 394 c 128,-1,7
 196 394 196 394 177 384.5 c 128,-1,8
 158 375 158 375 148.5 363 c 128,-1,9
 139 351 139 351 134 325.5 c 128,-1,10
 129 300 129 300 128.5 283.5 c 128,-1,11
 128 267 128 267 128 234 c 2,12,-1
 128 213 l 2,13,14
 128 180 128 180 128.5 164 c 128,-1,15
 129 148 129 148 134 123.5 c 128,-1,16
 139 99 139 99 148.5 88 c 128,-1,17
 158 77 158 77 177 68 c 128,-1,18
 196 59 196 59 224 59 c 128,-1,19
 252 59 252 59 271 68 c 128,-1,20
 290 77 290 77 299.5 88.5 c 128,-1,21
 309 100 309 100 314 124 c 128,-1,22
 319 148 319 148 319.5 164 c 128,-1,23
 320 180 320 180 320 213 c 2,0,-1
384 244 m 2,24,-1
 384 203 l 2,25,26
 384 166 384 166 383 145.5 c 128,-1,27
 382 125 382 125 373.5 92 c 128,-1,28
 365 59 365 59 349 40.5 c 128,-1,29
 333 22 333 22 301.5 8 c 128,-1,30
 270 -6 270 -6 224 -6 c 0,31,32
 191 -6 191 -6 165 1.5 c 128,-1,33
 139 9 139 9 122.5 19.5 c 128,-1,34
 106 30 106 30 94.5 49 c 128,-1,35
 83 68 83 68 77 83.5 c 128,-1,36
 71 99 71 99 68 124.5 c 128,-1,37
 65 150 65 150 64.5 165 c 128,-1,38
 64 180 64 180 64 206 c 2,39,-1
 64 241 l 2,40,41
 64 278 64 278 65 299.5 c 128,-1,42
 66 321 66 321 74.5 355.5 c 128,-1,43
 83 390 83 390 99 409.5 c 128,-1,44
 115 429 115 429 146.5 444 c 128,-1,45
 178 459 178 459 224 459 c 0,46,47
 262 459 262 459 291 450 c 128,-1,48
 320 441 320 441 336.5 422.5 c 128,-1,49
 353 404 353 404 363.5 386 c 128,-1,50
 374 368 374 368 378 339 c 128,-1,51
 382 310 382 310 383 292 c 128,-1,52
 384 274 384 274 384 244 c 2,24,-1
160 511 m 1,53,-1
 160 640 l 1,54,-1
 288 640 l 1,55,-1
 288 511 l 1,56,-1
 160 511 l 1,53,-1
EndSplineSet
EndChar
StartChar: uni0237
Encoding: 567 567 151
Width: 320
VWidth: 0
Flags: W
HStem: -192 64<0 167.35> 428 20G<192 256>
VStem: 192 64<-103.086 448>
LayerCount: 2
Fore
SplineSet
192 0 m 2,0,-1
 192 448 l 1,1,-1
 256 448 l 1,2,-1
 256 15 l 2,3,4
 256 -11 256 -11 255.5 -25.5 c 128,-1,5
 255 -40 255 -40 252 -65 c 128,-1,6
 249 -90 249 -90 243 -105 c 128,-1,7
 237 -120 237 -120 225.5 -138.5 c 128,-1,8
 214 -157 214 -157 197.5 -167.5 c 128,-1,9
 181 -178 181 -178 155 -185 c 128,-1,10
 129 -192 129 -192 96 -192 c 2,11,-1
 0 -192 l 1,12,-1
 0 -128 l 1,13,-1
 96 -128 l 2,14,15
 156 -128 156 -128 174 -97 c 128,-1,16
 192 -66 192 -66 192 0 c 2,0,-1
EndSplineSet
EndChar
StartChar: ring
Encoding: 730 730 154
Width: 320
Flags: W
HStem: 447 65<130.765 191.193> 575 65<130.765 191.193>
VStem: 64 65<513.911 573.079> 193 64<513.911 573.362>
LayerCount: 2
Fore
SplineSet
129 543.5 m 128,-1,1
 129 532 129 532 138.5 522 c 128,-1,2
 148 512 148 512 161 512 c 128,-1,3
 174 512 174 512 183.5 522 c 128,-1,4
 193 532 193 532 193 543.5 c 128,-1,5
 193 555 193 555 183.5 565 c 128,-1,6
 174 575 174 575 161 575 c 128,-1,7
 148 575 148 575 138.5 565 c 128,-1,0
 129 555 129 555 129 543.5 c 128,-1,1
64 542 m 0,8,9
 64 582 64 582 93 611 c 128,-1,10
 122 640 122 640 161 640 c 128,-1,11
 200 640 200 640 228.5 611.5 c 128,-1,12
 257 583 257 583 257 542 c 0,13,14
 257 503 257 503 228.5 475 c 128,-1,15
 200 447 200 447 161 447 c 128,-1,16
 122 447 122 447 93 475 c 128,-1,17
 64 503 64 503 64 542 c 0,8,9
EndSplineSet
EndChar
StartChar: uni2160
Encoding: 8544 8544 177
Width: 321
Flags: W
HStem: 0 64<64 128 192 256> 512 64<64 128 192 256>
VStem: 64 192<0 64 512 576>
LayerCount: 2
Fore
SplineSet
64 0 m 5,0,-1
 64 64 l 1,1,-1
 128 64 l 1,2,-1
 128 512 l 1,3,-1
 64 512 l 1,4,-1
 64 576 l 1,5,-1
 256 576 l 1,6,-1
 256 512 l 1,7,-1
 192 512 l 1,8,-1
 192 64 l 1,9,-1
 256 64 l 1,10,-1
 256 0 l 1,11,-1
 64 0 l 5,0,-1
EndSplineSet
EndChar
StartChar: uni2161
Encoding: 8545 8545 178
Width: 448
Flags: W
HStem: 0 64<64 128 192 256 320 384> 512 64<64 128 192 256 320 384>
VStem: 128 64<64 512> 256 64<64 512>
LayerCount: 2
Fore
SplineSet
64 0 m 5,0,-1
 64 64 l 1,1,-1
 128 64 l 1,2,-1
 128 512 l 1,3,-1
 64 512 l 1,4,-1
 64 576 l 1,5,-1
 192 576 l 1,6,-1
 256 576 l 1,7,-1
 384 576 l 1,8,-1
 384 512 l 1,9,-1
 320 512 l 1,10,-1
 320 64 l 1,11,-1
 384 64 l 1,12,-1
 384 0 l 1,13,-1
 256 0 l 1,14,-1
 192 0 l 1,15,-1
 64 0 l 5,0,-1
192 512 m 5,16,-1
 192 64 l 1,17,-1
 256 64 l 1,18,-1
 256 512 l 1,19,-1
 192 512 l 5,16,-1
EndSplineSet
EndChar
StartChar: uni2162
Encoding: 8546 8546 179
Width: 576
Flags: W
HStem: 0 64<64 128 192 256 320 384 448 512> 512 64<64 128 192 256 320 384 448 512>
VStem: 128 64<64 512> 256 64<64 512> 384 64<64 512>
CounterMasks: 1 38
LayerCount: 2
Fore
SplineSet
64 0 m 1,0,-1
 64 64 l 1,1,-1
 128 64 l 1,2,-1
 128 512 l 1,3,-1
 64 512 l 1,4,-1
 64 576 l 1,5,-1
 192 576 l 1,6,-1
 256 576 l 1,7,-1
 320 576 l 1,8,-1
 384 576 l 1,9,-1
 512 576 l 1,10,-1
 512 512 l 1,11,-1
 448 512 l 1,12,-1
 448 64 l 1,13,-1
 512 64 l 1,14,-1
 512 0 l 1,15,-1
 384 0 l 1,16,-1
 320 0 l 1,17,-1
 256 0 l 1,18,-1
 192 0 l 1,19,-1
 64 0 l 1,0,-1
192 512 m 1,20,-1
 192 64 l 1,21,-1
 256 64 l 1,22,-1
 256 512 l 1,23,-1
 192 512 l 1,20,-1
320 512 m 1,24,-1
 320 64 l 1,25,-1
 384 64 l 1,26,-1
 384 512 l 1,27,-1
 320 512 l 1,24,-1
EndSplineSet
EndChar
StartChar: uni2164
Encoding: 8548 8548 181
Width: 577
VWidth: 0
Flags: W
HStem: 0 64<64 240 339 512> 512 64<64 110 179 399 469 514>
LayerCount: 2
Fore
SplineSet
64 64 m 5,0,-1
 129 64 l 1,1,-1
 240 64 l 1,2,-1
 110 512 l 1,3,-1
 64 512 l 1,4,-1
 64 576 l 1,5,-1
 514 576 l 1,6,-1
 514 512 l 1,7,-1
 469 512 l 1,8,-1
 339 64 l 1,9,-1
 512 64 l 1,10,-1
 512 0 l 1,11,-1
 64 0 l 1,12,-1
 64 64 l 5,0,-1
399 512 m 5,13,-1
 179 512 l 1,14,-1
 289 131 l 1,15,-1
 399 512 l 5,13,-1
EndSplineSet
EndChar
StartChar: uni2165
Encoding: 8549 8549 182
Width: 704
VWidth: 0
Flags: W
HStem: 0 64<64 240 339 512 576 640> 512 64<64 110 179 399 469 512 576 640>
VStem: 512 64<64 512>
LayerCount: 2
Fore
SplineSet
64 64 m 5,0,-1
 240 64 l 1,1,-1
 110 512 l 1,2,-1
 64 512 l 1,3,-1
 64 576 l 1,4,-1
 640 576 l 1,5,-1
 640 512 l 1,6,-1
 576 512 l 1,7,-1
 576 64 l 1,8,-1
 640 64 l 1,9,-1
 640 0 l 1,10,-1
 64 0 l 1,11,-1
 64 64 l 5,0,-1
399 512 m 5,12,-1
 179 512 l 1,13,-1
 289 131 l 1,14,-1
 399 512 l 5,12,-1
339 64 m 5,15,-1
 512 64 l 1,16,-1
 512 512 l 1,17,-1
 469 512 l 1,18,-1
 339 64 l 5,15,-1
EndSplineSet
EndChar
StartChar: uni2167
Encoding: 8551 8551 184
Width: 960
VWidth: 0
Flags: W
HStem: 0 64<64 240 339 512 576 640 704 768 832 896> 512 64<64 110 179 399 469 512 576 640 704 768 832 896>
VStem: 512 64<64 512> 640 64<64 512> 768 64<64 512>
CounterMasks: 1 38
LayerCount: 2
Fore
SplineSet
576 512 m 1,0,-1
 576 64 l 1,1,-1
 640 64 l 1,2,-1
 640 512 l 1,3,-1
 576 512 l 1,0,-1
64 64 m 1,4,-1
 240 64 l 1,5,-1
 110 512 l 1,6,-1
 64 512 l 1,7,-1
 64 576 l 1,8,-1
 896 576 l 1,9,-1
 896 512 l 1,10,-1
 832 512 l 1,11,-1
 832 64 l 1,12,-1
 896 64 l 1,13,-1
 896 0 l 1,14,-1
 64 0 l 1,15,-1
 64 64 l 1,4,-1
399 512 m 1,16,-1
 179 512 l 1,17,-1
 289 131 l 1,18,-1
 399 512 l 1,16,-1
339 64 m 1,19,-1
 512 64 l 1,20,-1
 512 512 l 1,21,-1
 469 512 l 1,22,-1
 339 64 l 1,19,-1
704 512 m 1,23,-1
 704 64 l 1,24,-1
 768 64 l 1,25,-1
 768 512 l 1,26,-1
 704 512 l 1,23,-1
EndSplineSet
EndChar
StartChar: uni216A
Encoding: 8554 8554 187
Width: 704
VWidth: 0
Flags: W
HStem: 0 64<64 122 195 381 454 512 576 640> 512 64<64 114 186 390 462 512 576 640>
VStem: 512 64<64 512>
LayerCount: 2
Fore
SplineSet
195 64 m 5,0,-1
 381 64 l 1,1,-1
 288 236 l 1,2,-1
 195 64 l 5,0,-1
186 512 m 5,3,-1
 288 330 l 1,4,-1
 390 512 l 1,5,-1
 186 512 l 5,3,-1
64 0 m 5,6,-1
 64 64 l 1,7,-1
 122 64 l 1,8,-1
 248 288 l 1,9,-1
 114 512 l 1,10,-1
 64 512 l 1,11,-1
 64 576 l 1,12,-1
 640 576 l 1,13,-1
 640 512 l 1,14,-1
 576 512 l 1,15,-1
 576 64 l 1,16,-1
 640 64 l 1,17,-1
 640 0 l 1,18,-1
 64 0 l 5,6,-1
462 512 m 5,19,-1
 328 288 l 1,20,-1
 454 64 l 1,21,-1
 512 64 l 1,22,-1
 512 512 l 1,23,-1
 462 512 l 5,19,-1
EndSplineSet
EndChar
StartChar: uni216B
Encoding: 8555 8555 188
Width: 832
VWidth: 0
Flags: W
HStem: 0 64<64 122 195 381 454 512 576 640 704 768> 512 64<64 114 186 390 462 512 576 640 704 768>
VStem: 512 64<64 512> 640 64<64 512>
LayerCount: 2
Fore
SplineSet
462 512 m 1,0,-1
 328 288 l 1,1,-1
 454 64 l 1,2,-1
 512 64 l 1,3,-1
 512 512 l 1,4,-1
 462 512 l 1,0,-1
64 0 m 1,5,-1
 64 64 l 1,6,-1
 122 64 l 1,7,-1
 248 288 l 1,8,-1
 114 512 l 1,9,-1
 64 512 l 1,10,-1
 64 576 l 1,11,-1
 768 576 l 1,12,-1
 768 512 l 1,13,-1
 704 512 l 1,14,-1
 704 64 l 1,15,-1
 768 64 l 1,16,-1
 768 0 l 1,17,-1
 64 0 l 1,5,-1
186 512 m 1,18,-1
 288 330 l 1,19,-1
 390 512 l 1,20,-1
 186 512 l 1,18,-1
195 64 m 1,21,-1
 381 64 l 1,22,-1
 288 236 l 1,23,-1
 195 64 l 1,21,-1
576 512 m 1,24,-1
 576 64 l 1,25,-1
 640 64 l 1,26,-1
 640 512 l 1,27,-1
 576 512 l 1,24,-1
EndSplineSet
EndChar
